<?xml version="1.0" standalone="no"?>
<!DOCTYPE svg PUBLIC "-//W3C//DTD SVG 20010904//EN"
 "http://www.w3.org/TR/2001/REC-SVG-20010904/DTD/svg10.dtd">
<svg version="1.0" xmlns="http://www.w3.org/2000/svg"
 width="1050.000000pt" height="700.000000pt" viewBox="0 0 1050.000000 700.000000"
 preserveAspectRatio="xMidYMid meet">
<metadata>
Created by potrace 1.16, written by Peter Selinger 2001-2019
</metadata>
<g transform="translate(0.000000,700.000000) scale(0.100000,-0.100000)"
fill="#000000" stroke="none">
<path d="M0 5075 l0 -1925 23 1 c17 1 18 2 4 6 -9 2 -15 8 -13 12 3 4 8 73 11
152 3 79 12 169 20 199 7 30 19 96 25 145 15 118 16 122 39 245 17 92 25 146
47 315 3 22 9 53 15 69 5 16 9 50 9 75 0 25 5 73 10 106 5 33 14 127 20 210 6
82 15 177 20 210 6 33 12 83 15 110 9 102 16 161 22 185 3 14 5 31 4 39 -4 24
10 82 18 77 11 -7 1 -142 -16 -230 -3 -18 -1 -26 5 -22 17 10 19 -56 2 -86
-13 -25 -13 -30 3 -58 17 -28 16 -71 -1 -69 -23 4 -24 -4 -3 -20 18 -14 22
-23 16 -37 -11 -26 -14 -164 -3 -170 5 -3 5 -11 0 -17 -11 -14 -21 -77 -12
-77 8 0 5 -64 -5 -114 -5 -28 -4 -40 6 -46 10 -7 10 -12 1 -23 -9 -10 -10 -62
-6 -192 3 -118 2 -180 -5 -185 -6 -3 -11 -42 -12 -85 -1 -53 -8 -93 -20 -117
-9 -21 -13 -38 -8 -38 14 0 11 -78 -4 -83 -9 -4 -9 -6 1 -6 18 -1 15 -28 -5
-36 -17 -6 -17 -7 0 -19 22 -17 22 -53 -1 -67 -15 -9 -17 -26 -16 -117 1 -76
-2 -111 -12 -122 -10 -12 -11 -25 -2 -57 9 -37 8 -44 -11 -64 -12 -13 -21 -33
-21 -45 0 -12 -5 -24 -11 -26 -8 -3 -9 -10 -2 -23 5 -11 8 -41 5 -67 -4 -45
-6 -48 -32 -48 -16 0 -31 -6 -34 -12 -5 -10 -7 -10 -12 0 -3 6 -14 12 -23 12
-10 0 -23 11 -29 25 -16 35 -16 35 13 35 14 0 25 5 25 10 0 6 -4 10 -9 10 -6
0 -6 12 0 30 6 17 16 30 22 30 6 0 8 3 5 6 -3 3 -22 2 -42 -1 -26 -5 -36 -12
-36 -25 0 -10 6 -21 13 -24 9 -5 9 -7 0 -12 -10 -4 -13 -250 -13 -1140 l0
-1135 22 12 c13 6 63 35 113 64 50 29 155 90 235 136 154 88 519 300 610 355
30 18 69 41 85 50 128 71 414 247 476 293 l77 56 0 60 c0 33 -3 65 -8 70 -10
13 -11 30 -14 160 -1 61 -5 117 -9 125 -6 13 -27 213 -42 390 -3 36 -10 92
-15 125 -15 95 -30 251 -35 365 -2 58 -9 166 -15 240 -29 396 -40 925 -36
1765 4 889 12 1507 21 1808 l6 177 -135 0 -135 0 -4 -42 -4 -43 -1 43 -2 42
-595 0 -595 0 0 -1925z m1230 1485 c0 -21 -5 -40 -11 -42 -7 -2 -7 -17 0 -48
6 -26 8 -108 4 -195 -3 -83 -6 -175 -6 -205 0 -30 -5 -58 -11 -62 -8 -6 -8
-10 0 -15 7 -5 8 -39 4 -98 -4 -49 -8 -73 -8 -52 -1 20 -5 37 -9 37 -5 0 -8
36 -9 80 0 44 3 80 8 80 5 0 5 8 0 18 -5 9 -10 76 -11 147 -1 72 -3 146 -6
165 -4 29 -3 31 4 10 8 -21 9 -19 10 20 0 33 -2 41 -9 30 -12 -17 -6 20 12 83
8 27 8 44 0 61 -13 28 -8 36 19 29 15 -4 19 -14 19 -43z"/>
<path d="M8238 6898 c-1 -57 -1 -114 -1 -128 5 -105 4 -1010 -1 -1018 -3 -6
-2 -32 4 -58 8 -34 8 -49 0 -54 -6 -4 -10 -35 -10 -71 1 -35 -2 -93 -5 -128
-5 -41 -3 -67 4 -74 16 -16 13 -47 -5 -47 -12 0 -15 -11 -14 -52 2 -56 -7
-138 -15 -146 -2 -3 0 -13 6 -23 5 -11 6 -19 1 -19 -5 0 -7 -25 -4 -56 3 -41
1 -59 -9 -65 -12 -8 -12 -11 1 -20 11 -8 12 -12 3 -16 -7 -2 -13 -14 -14 -26
0 -21 -1 -21 -9 -2 -7 17 -9 15 -9 -12 -1 -18 -5 -33 -10 -33 -18 0 -51 58
-51 89 0 17 -4 31 -10 31 -5 0 -10 -9 -10 -20 0 -11 -3 -20 -7 -20 -14 0 -73
73 -73 91 0 11 -6 18 -12 17 -7 -2 -14 7 -16 20 -2 12 -8 22 -13 22 -5 0 -9
-10 -10 -22 -1 -51 -10 -158 -20 -243 -5 -49 -16 -162 -24 -250 -22 -250 -27
-285 -40 -285 -8 0 -12 17 -11 48 0 26 -3 94 -7 152 -3 58 -9 197 -13 310 -9
328 -23 285 -44 -145 -6 -115 -13 -216 -15 -223 -3 -8 -7 -73 -10 -145 -3 -73
-10 -186 -16 -252 -16 -199 -18 -217 -24 -310 -3 -49 -10 -119 -16 -155 -17
-115 -21 -154 -19 -208 0 -29 -5 -66 -13 -81 -8 -16 -14 -48 -14 -72 -1 -65
-13 -119 -28 -119 -8 0 -15 -17 -19 -42 -10 -84 -18 -118 -27 -118 -4 0 -24
16 -44 37 -30 31 -35 43 -35 82 0 33 3 42 10 31 5 -8 10 -10 10 -4 0 6 -11 21
-25 34 -24 23 -25 23 -45 5 -11 -10 -20 -31 -20 -47 0 -16 -7 -43 -16 -61 -15
-28 -18 -30 -24 -12 -4 11 -1 58 7 105 8 47 17 111 20 142 6 64 6 64 -64 72
-34 4 -45 1 -51 -12 -5 -9 -6 -206 -3 -437 l6 -420 76 -30 c81 -32 248 -116
290 -146 58 -41 422 -230 434 -225 14 5 17 36 34 371 7 116 14 216 17 224 3 8
7 141 10 295 3 155 8 290 11 301 3 11 9 315 14 675 8 652 11 740 29 855 5 33
14 128 21 210 6 83 12 168 14 190 7 83 25 520 36 840 5 182 14 436 19 565 5
129 9 281 10 338 l0 102 -45 0 -45 0 -2 -102z"/>
<path d="M6460 6176 c0 -3 -28 -201 -150 -1046 -18 -130 -66 -454 -129 -875
-17 -110 -37 -236 -45 -280 -9 -44 -25 -144 -36 -222 -23 -163 -27 -176 -47
-168 -8 3 -56 14 -107 26 -50 11 -101 25 -114 30 -33 13 -44 11 -40 -7 2 -9
31 -25 73 -38 39 -13 93 -31 120 -40 28 -10 56 -18 63 -18 6 -1 12 -14 12 -30
0 -31 -38 -304 -46 -329 -4 -15 -18 -13 -122 17 -161 45 -176 46 -180 12 -4
-36 25 -61 90 -77 29 -8 71 -22 93 -31 22 -10 52 -21 68 -24 23 -5 27 -11 27
-40 0 -32 -43 -350 -56 -408 -4 -21 -2 -28 10 -28 9 0 16 3 16 6 0 16 206
1440 324 2244 192 1304 196 1330 182 1330 -3 0 -6 -2 -6 -4z"/>
<path d="M6440 3884 c0 -15 6 -35 14 -43 31 -35 60 -101 83 -191 50 -195 150
-472 160 -444 10 30 -170 605 -205 658 -34 50 -52 57 -52 20z"/>
<path d="M7315 3709 c-210 -12 -246 -16 -258 -28 -8 -8 -6 -11 9 -11 60 0 202
-23 221 -35 16 -11 23 -12 26 -2 3 6 6 0 6 -15 1 -29 15 -37 25 -15 5 10 7 10
12 0 3 -7 14 -13 24 -13 9 0 23 -7 30 -15 9 -10 9 -15 1 -15 -6 0 -11 -4 -11
-10 0 -25 28 -7 42 28 39 90 42 109 25 126 -8 9 -17 15 -19 14 -2 0 -61 -4
-133 -9z"/>
<path d="M9132 3217 c-6 -6 -20 -36 -31 -65 -22 -55 -44 -98 -86 -167 -14 -22
-27 -48 -31 -57 -3 -10 -10 -18 -15 -18 -5 0 -9 -8 -9 -19 0 -10 -7 -24 -15
-31 -8 -7 -15 -19 -15 -26 0 -8 -4 -14 -10 -14 -5 0 -10 -7 -10 -15 0 -8 -11
-27 -25 -42 -14 -15 -46 -59 -71 -98 -26 -38 -52 -74 -60 -78 -8 -4 -14 -15
-14 -23 0 -18 -47 -113 -66 -132 -8 -7 -14 -20 -14 -28 0 -8 -7 -17 -16 -21
-8 -3 -13 -12 -10 -19 3 -7 1 -16 -4 -19 -5 -3 -16 -29 -24 -59 -9 -29 -23
-59 -31 -66 -8 -7 -15 -22 -15 -34 0 -12 -5 -27 -11 -33 -11 -11 -20 -82 -19
-150 1 -43 1 -43 -35 -43 -24 0 -35 -4 -35 -15 0 -8 -9 -24 -20 -35 -11 -11
-19 -29 -17 -39 2 -11 53 -71 114 -134 61 -63 138 -155 171 -203 l59 -89 229
-136 c306 -181 499 -289 518 -289 3 0 3 76 0 168 -5 116 -3 175 5 190 9 16 7
27 -6 50 -14 25 -15 35 -5 56 11 24 17 26 71 26 49 0 59 3 55 15 -3 8 -15 17
-26 21 -14 4 -17 9 -9 13 9 6 9 19 2 52 -6 24 -11 59 -11 77 0 23 -5 32 -17
33 -15 0 -14 3 5 16 28 19 28 41 1 45 -18 2 -22 11 -25 56 -2 29 -11 66 -19
82 -8 16 -15 37 -15 48 0 10 -5 23 -11 29 -8 8 -7 17 3 32 11 19 11 24 -3 34
-9 7 -16 28 -17 47 -1 19 -2 44 -3 55 0 11 1 30 4 43 4 15 1 25 -9 29 -8 3
-14 13 -13 22 2 24 -12 81 -21 81 -9 0 -18 152 -26 449 -5 156 -3 219 6 235
12 24 73 51 90 41 6 -4 30 1 55 10 29 12 56 15 79 11 29 -6 35 -4 30 8 -9 24
-55 38 -229 70 -44 8 -118 20 -165 27 -47 6 -97 18 -112 25 -33 17 -33 17 -46
1z"/>
<path d="M6126 2924 c-3 -9 -6 -25 -6 -37 0 -11 -6 -28 -14 -36 -10 -12 -17
-80 -26 -266 -13 -292 -29 -964 -23 -1015 2 -19 0 -60 -4 -90 -9 -60 -5 -57
-116 -75 -40 -6 -42 -25 -3 -25 13 0 38 -5 56 -12 31 -10 32 -12 15 -25 -27
-19 -69 -16 -100 8 -22 18 -29 20 -36 8 -5 -8 -9 -17 -9 -21 0 -20 -249 1
-332 28 -23 7 -14 -21 10 -32 9 -4 85 -9 167 -11 83 -3 153 -8 157 -12 4 -4
12 -104 18 -224 6 -119 15 -229 20 -243 7 -18 7 -30 0 -39 -14 -17 -4 -40 23
-52 25 -11 318 10 360 26 49 19 63 94 83 427 l6 111 82 7 c44 3 189 6 321 6
153 0 245 4 255 11 11 8 0 9 -40 5 -105 -11 -604 -8 -608 3 -2 6 -23 11 -47
11 -24 0 -64 9 -89 20 l-46 19 0 168 c1 92 5 254 10 358 13 265 13 909 0 913
-5 2 -10 18 -10 36 0 51 -58 90 -74 50z"/>
<path d="M7310 2338 c0 -2 -3 -62 -7 -134 l-6 -131 209 -7 c309 -10 294 -8
379 -63 234 -150 251 -158 239 -105 -4 15 -9 30 -11 34 -2 4 -79 46 -171 94
-92 48 -243 127 -337 175 -190 99 -294 147 -295 137z"/>
<path d="M3914 1415 c-20 -20 -29 -23 -44 -15 -10 5 -25 8 -32 5 -12 -5 -286
-35 -773 -85 -323 -34 -325 -34 -325 -21 0 20 -38 12 -45 -10 -4 -11 -5 -23
-2 -25 3 -3 152 -10 332 -15 180 -5 330 -11 334 -13 13 -8 586 -19 621 -12 29
6 39 15 57 54 28 59 29 61 20 99 -12 60 -98 83 -143 38z"/>
<path d="M7424 1369 c-14 -23 22 -82 91 -150 41 -40 81 -77 90 -82 24 -13
1386 -22 1411 -9 16 8 20 18 16 40 l-4 30 -696 4 c-799 5 -724 -5 -835 107
-37 38 -70 64 -73 60z"/>
<path d="M2939 1099 c-187 -12 -459 -75 -459 -107 0 -8 -7 -20 -17 -27 -20
-15 -12 -38 20 -60 51 -33 489 -51 862 -34 298 13 415 38 415 89 0 14 -11 22
-42 31 -24 6 -81 22 -127 35 -230 66 -419 87 -652 73z"/>
<path d="M9645 1029 c-4 -11 -4 -23 -2 -26 3 -3 2 -15 -3 -28 -8 -20 -1 -26
75 -69 46 -25 91 -46 99 -46 9 0 16 -4 16 -9 0 -5 35 -26 78 -46 42 -21 84
-44 92 -51 8 -7 35 -20 60 -30 25 -10 58 -28 73 -41 40 -33 54 -29 62 16 7 43
-5 75 -34 90 -25 14 -41 -5 -41 -46 0 -33 0 -33 -25 -17 -19 12 -25 25 -25 53
0 42 -15 66 -47 75 -25 8 -39 -20 -28 -55 5 -16 3 -20 -6 -17 -9 3 -13 19 -12
47 1 24 -2 39 -7 36 -6 -4 -10 -20 -10 -36 0 -18 -4 -28 -10 -24 -6 4 -8 21
-4 40 5 26 1 38 -16 55 -27 27 -55 22 -56 -10 -2 -41 -3 -45 -14 -34 -6 6 -6
21 -1 42 10 34 -4 56 -20 31 -7 -11 -9 -11 -9 3 0 16 -44 58 -61 58 -5 0 -10
-12 -10 -27 -2 -24 -2 -25 -6 -5 -6 31 -23 17 -23 -19 0 -19 -4 -28 -11 -23
-7 4 -9 22 -5 49 6 38 4 45 -20 64 -33 26 -41 26 -49 0z"/>
<path d="M7430 730 c0 -12 89 -180 107 -201 32 -37 83 -41 588 -43 270 -2 558
0 640 3 l150 6 -190 7 c-104 5 -391 8 -636 8 l-447 0 -10 28 c-6 15 -13 40
-17 56 -9 43 -33 73 -63 81 -15 3 -44 19 -64 36 -38 30 -58 37 -58 19z"/>
<path d="M0 106 l0 -106 4737 0 c2605 0 4734 2 4732 4 -2 2 -107 7 -234 11
-126 3 -243 9 -260 12 -16 4 -43 7 -60 9 -108 7 -305 16 -450 19 -93 1 -253 6
-355 10 -268 10 -556 15 -705 13 -193 -3 -224 -2 -290 4 -33 4 -224 9 -425 12
-401 6 -508 11 -649 27 -51 6 -104 8 -117 5 -14 -4 -45 0 -70 9 -40 14 -47 14
-60 0 -9 -8 -20 -13 -24 -10 -5 3 -78 8 -162 11 -249 8 -305 11 -314 16 -10 6
-685 15 -1689 23 -363 3 -797 7 -965 10 -168 3 -555 7 -860 10 -305 3 -831 7
-1167 11 l-613 5 0 -105z"/>
</g>
</svg>
