<?xml version="1.0" encoding="UTF-8" standalone="no"?>
<!DOCTYPE svg PUBLIC "-//W3C//DTD SVG 1.1//EN" "http://www.w3.org/Graphics/SVG/1.1/DTD/svg11.dtd">
<svg version="1.1" xmlns="http://www.w3.org/2000/svg" xmlns:xlink="http://www.w3.org/1999/xlink" preserveAspectRatio="xMidYMid meet" viewBox="0 0 536 349" width="536" height="349"><defs><path d="M267.93 0L246.34 21.59L398.33 173.81L314.99 257.14L289.63 231.78L347.61 173.8L173.8 0L0 173.81L173.8 347.61L220.86 300.55L267.93 347.61L289.09 326.45L137.53 173.81L220.86 90.47L246.23 115.83L188.25 173.81L362.06 347.61C399.34 310.34 432.46 277.21 461.43 248.25C490.39 219.28 515.21 194.46 535.86 173.81C549.84 187.78 542.34 180.28 513.37 151.31C484.4 122.35 433.97 71.91 362.06 0L314.99 47.06L267.93 0ZM199.16 278.85L173.8 304.2L43.4 173.81L173.8 43.41L199.16 68.77L94.13 173.81L199.16 278.85ZM267.93 137.54L304.19 173.81L267.93 210.08L231.66 173.81L267.93 137.54ZM362.06 304.2L336.7 278.85L441.74 173.81L336.7 68.77L362.06 43.42L492.46 173.81L362.06 304.2Z" id="b2TEUqWOoP"></path></defs><g><g><g><use xlink:href="#b2TEUqWOoP" opacity="1" fill="#0e090b" fill-opacity="1"></use><g><use xlink:href="#b2TEUqWOoP" opacity="1" fill-opacity="0" stroke="#000000" stroke-width="1" stroke-opacity="0"></use></g></g></g></g></svg>