<?xml version="1.0" encoding="UTF-8"?>
<svg xmlns="http://www.w3.org/2000/svg" xmlns:xlink="http://www.w3.org/1999/xlink" width="204.800003pt" height="204.800003pt" viewBox="0 0 204.800003 204.800003" version="1.1">
<g id="surface1">
<path style=" stroke:none;fill-rule:nonzero;fill:rgb(0%,0%,0%);fill-opacity:1;" d="M 103.121094 1.914062 C 90.019531 1.914062 77.046875 4.496094 64.945312 9.507812 C 52.84375 14.523438 41.84375 21.871094 32.582031 31.132812 C 23.316406 40.398438 15.96875 51.394531 10.957031 63.496094 C 5.941406 75.601562 3.363281 88.574219 3.363281 101.671875 C 3.363281 114.773438 5.941406 127.746094 10.957031 139.851562 C 15.96875 151.953125 23.316406 162.949219 32.582031 172.214844 C 41.84375 181.476562 52.84375 188.824219 64.945312 193.839844 C 77.046875 198.851562 90.019531 201.433594 103.121094 201.433594 C 116.222656 201.433594 129.195312 198.851562 141.296875 193.839844 C 153.402344 188.824219 164.398438 181.476562 173.660156 172.214844 C 182.925781 162.949219 190.273438 151.953125 195.285156 139.851562 C 200.136719 128.136719 202.710938 115.609375 202.871094 102.941406 L 202.878906 101.671875 L 202.871094 100.40625 C 202.710938 87.738281 200.136719 75.210938 195.285156 63.496094 C 190.273438 51.394531 182.925781 40.398438 173.660156 31.132812 C 164.398438 21.871094 153.402344 14.523438 141.296875 9.507812 C 129.195312 4.496094 116.222656 1.914062 103.121094 1.914062 Z M 103.121094 1.914062 "/>
<path style="fill-rule:nonzero;fill:rgb(9%,9%,9%);stroke-opacity:1;stroke-miterlimit:4;" d="M 80.339844 59.183594 C 81.359375 59.183594 82.339844 58.78125 83.058594 58.058594 C 83.777344 57.339844 84.183594 56.359375 84.183594 55.34375 C 84.183594 54.324219 83.777344 53.34375 83.058594 52.625 C 82.339844 51.90625 81.359375 51.5 80.339844 51.5 C 79.324219 51.5 78.34375 51.90625 77.625 52.625 C 76.902344 53.34375 76.5 54.324219 76.5 55.34375 C 76.5 56.359375 76.902344 57.339844 77.625 58.058594 C 78.34375 58.78125 79.324219 59.183594 80.339844 59.183594 Z M 80.339844 59.183594 "/>
<path style="fill-rule:nonzero;fill:rgb(9%,9%,9%);stroke-opacity:1;stroke-miterlimit:4;" d="M 72.066406 64.976562 C 73.054688 64.976562 74 64.585938 74.699219 63.886719 C 75.398438 63.191406 75.789062 62.242188 75.789062 61.257812 C 75.789062 60.269531 75.398438 59.324219 74.699219 58.625 C 74 57.925781 73.054688 57.535156 72.066406 57.535156 C 71.082031 57.535156 70.132812 57.925781 69.4375 58.625 C 68.738281 59.324219 68.347656 60.269531 68.347656 61.257812 C 68.347656 62.242188 68.738281 63.191406 69.4375 63.886719 C 70.132812 64.585938 71.082031 64.976562 72.066406 64.976562 Z M 72.066406 64.976562 "/>
<path style="fill-rule:nonzero;fill:rgb(9%,9%,9%);stroke-opacity:1;stroke-miterlimit:4;" d="M 64.109375 68.664062 C 65.039062 68.664062 65.929688 68.296875 66.585938 67.636719 C 67.242188 66.980469 67.613281 66.089844 67.613281 65.160156 C 67.613281 64.230469 67.242188 63.339844 66.585938 62.683594 C 65.929688 62.027344 65.039062 61.65625 64.109375 61.65625 C 63.179688 61.65625 62.289062 62.027344 61.628906 62.683594 C 60.972656 63.339844 60.605469 64.230469 60.605469 65.160156 C 60.605469 66.089844 60.972656 66.980469 61.628906 67.636719 C 62.289062 68.296875 63.179688 68.664062 64.109375 68.664062 Z M 64.109375 68.664062 "/>
<path style="fill-rule:nonzero;fill:rgb(9%,9%,9%);stroke-opacity:1;stroke-miterlimit:4;" d="M 87.320312 54.605469 C 88.371094 54.605469 89.378906 54.191406 90.117188 53.449219 C 90.859375 52.707031 91.277344 51.699219 91.277344 50.652344 C 91.277344 49.601562 90.859375 48.59375 90.117188 47.851562 C 89.378906 47.109375 88.371094 46.695312 87.320312 46.695312 C 86.273438 46.695312 85.265625 47.109375 84.523438 47.851562 C 83.78125 48.59375 83.367188 49.601562 83.367188 50.652344 C 83.367188 51.699219 83.78125 52.707031 84.523438 53.449219 C 85.265625 54.191406 86.273438 54.605469 87.320312 54.605469 Z M 87.320312 54.605469 "/>
<path style="fill-rule:nonzero;fill:rgb(9%,9%,9%);stroke-opacity:1;stroke-miterlimit:4;" d="M 58.136719 60.355469 C 58.839844 60.355469 59.519531 60.074219 60.015625 59.578125 C 60.515625 59.078125 60.796875 58.402344 60.796875 57.699219 C 60.796875 56.992188 60.515625 56.316406 60.015625 55.816406 C 59.519531 55.320312 58.839844 55.039062 58.136719 55.039062 C 57.433594 55.039062 56.753906 55.320312 56.257812 55.816406 C 55.757812 56.316406 55.476562 56.992188 55.476562 57.699219 C 55.476562 58.402344 55.757812 59.078125 56.257812 59.578125 C 56.753906 60.074219 57.433594 60.355469 58.136719 60.355469 Z M 58.136719 60.355469 "/>
<path style="fill-rule:nonzero;fill:rgb(9%,9%,9%);stroke-opacity:1;stroke-miterlimit:4;" d="M 51.574219 74.917969 C 52.410156 74.917969 53.214844 74.585938 53.804688 73.992188 C 54.398438 73.402344 54.730469 72.597656 54.730469 71.761719 C 54.730469 70.921875 54.398438 70.121094 53.804688 69.527344 C 53.214844 68.933594 52.410156 68.601562 51.574219 68.601562 C 50.734375 68.601562 49.929688 68.933594 49.339844 69.527344 C 48.746094 70.121094 48.414062 70.921875 48.414062 71.761719 C 48.414062 72.597656 48.746094 73.402344 49.339844 73.992188 C 49.929688 74.585938 50.734375 74.917969 51.574219 74.917969 Z M 51.574219 74.917969 "/>
<path style="fill-rule:nonzero;fill:rgb(9%,9%,9%);stroke-opacity:1;stroke-miterlimit:4;" d="M 55.589844 49.910156 C 56.597656 49.910156 57.566406 49.507812 58.28125 48.796875 C 58.992188 48.082031 59.394531 47.113281 59.394531 46.105469 C 59.394531 45.09375 58.992188 44.128906 58.28125 43.414062 C 57.566406 42.699219 56.597656 42.300781 55.589844 42.300781 C 54.582031 42.300781 53.613281 42.699219 52.898438 43.414062 C 52.183594 44.128906 51.785156 45.09375 51.785156 46.105469 C 51.785156 47.113281 52.183594 48.082031 52.898438 48.796875 C 53.613281 49.507812 54.582031 49.910156 55.589844 49.910156 Z M 55.589844 49.910156 "/>
<path style="fill-rule:nonzero;fill:rgb(9%,9%,9%);stroke-opacity:1;stroke-miterlimit:4;" d="M 65.859375 57.03125 C 66.640625 57.03125 67.386719 56.722656 67.941406 56.171875 C 68.492188 55.617188 68.800781 54.871094 68.800781 54.089844 C 68.800781 53.308594 68.492188 52.558594 67.941406 52.007812 C 67.386719 51.457031 66.640625 51.144531 65.859375 51.144531 C 65.078125 51.144531 64.328125 51.457031 63.777344 52.007812 C 63.226562 52.558594 62.914062 53.308594 62.914062 54.089844 C 62.914062 54.871094 63.226562 55.617188 63.777344 56.171875 C 64.328125 56.722656 65.078125 57.03125 65.859375 57.03125 Z M 65.859375 57.03125 "/>
<path style="fill-rule:nonzero;fill:rgb(9%,9%,9%);stroke-opacity:1;stroke-miterlimit:4;" d="M 116.613281 48.246094 C 117.527344 48.246094 118.402344 47.886719 119.046875 47.238281 C 119.695312 46.59375 120.054688 45.71875 120.054688 44.804688 C 120.054688 43.894531 119.695312 43.019531 119.046875 42.371094 C 118.402344 41.726562 117.527344 41.363281 116.613281 41.363281 C 115.703125 41.363281 114.828125 41.726562 114.179688 42.371094 C 113.535156 43.019531 113.171875 43.894531 113.171875 44.804688 C 113.171875 45.71875 113.535156 46.59375 114.179688 47.238281 C 114.828125 47.886719 115.703125 48.246094 116.613281 48.246094 Z M 116.613281 48.246094 "/>
<path style="fill-rule:nonzero;fill:rgb(9%,9%,9%);stroke-opacity:1;stroke-miterlimit:4;" d="M 44.425781 66.492188 C 44.980469 66.492188 45.511719 66.273438 45.902344 65.882812 C 46.292969 65.492188 46.515625 64.960938 46.515625 64.40625 C 46.515625 63.851562 46.292969 63.324219 45.902344 62.929688 C 45.511719 62.539062 44.980469 62.320312 44.425781 62.320312 C 43.875 62.320312 43.34375 62.539062 42.953125 62.929688 C 42.5625 63.324219 42.339844 63.851562 42.339844 64.40625 C 42.339844 64.960938 42.5625 65.492188 42.953125 65.882812 C 43.34375 66.273438 43.875 66.492188 44.425781 66.492188 Z M 44.425781 66.492188 "/>
<path style="fill-rule:nonzero;fill:rgb(9%,9%,9%);stroke-opacity:1;stroke-miterlimit:4;" d="M 51.359375 64.527344 C 52.015625 64.527344 52.648438 64.269531 53.109375 63.804688 C 53.574219 63.339844 53.835938 62.710938 53.835938 62.054688 C 53.835938 61.398438 53.574219 60.765625 53.109375 60.300781 C 52.648438 59.839844 52.015625 59.578125 51.359375 59.578125 C 50.703125 59.578125 50.074219 59.839844 49.609375 60.300781 C 49.144531 60.765625 48.886719 61.398438 48.886719 62.054688 C 48.886719 62.710938 49.144531 63.339844 49.609375 63.804688 C 50.074219 64.269531 50.703125 64.527344 51.359375 64.527344 Z M 51.359375 64.527344 "/>
<path style="fill-rule:nonzero;fill:rgb(9%,9%,9%);stroke-opacity:1;stroke-miterlimit:4;" d="M 38.71875 56.683594 C 39.589844 56.683594 40.425781 56.335938 41.039062 55.722656 C 41.65625 55.105469 42 54.273438 42 53.402344 C 42 52.53125 41.65625 51.695312 41.039062 51.082031 C 40.425781 50.464844 39.589844 50.121094 38.71875 50.121094 C 37.847656 50.121094 37.015625 50.464844 36.398438 51.082031 C 35.78125 51.695312 35.4375 52.53125 35.4375 53.402344 C 35.4375 54.273438 35.78125 55.105469 36.398438 55.722656 C 37.015625 56.335938 37.847656 56.683594 38.71875 56.683594 Z M 38.71875 56.683594 "/>
<path style="fill-rule:nonzero;fill:rgb(9%,9%,9%);stroke-opacity:1;stroke-miterlimit:4;" d="M 51.632812 55.238281 C 52.085938 55.238281 52.519531 55.054688 52.84375 54.734375 C 53.164062 54.414062 53.34375 53.980469 53.34375 53.527344 C 53.34375 53.074219 53.164062 52.636719 52.84375 52.316406 C 52.519531 51.996094 52.085938 51.816406 51.632812 51.816406 C 51.179688 51.816406 50.742188 51.996094 50.421875 52.316406 C 50.101562 52.636719 49.921875 53.074219 49.921875 53.527344 C 49.921875 53.980469 50.101562 54.414062 50.421875 54.734375 C 50.742188 55.054688 51.179688 55.238281 51.632812 55.238281 Z M 51.632812 55.238281 "/>
<path style="fill-rule:nonzero;fill:rgb(9%,9%,9%);stroke-opacity:1;stroke-miterlimit:4;" d="M 74.539062 52.570312 C 75.386719 52.570312 76.199219 52.234375 76.796875 51.632812 C 77.398438 51.035156 77.734375 50.222656 77.734375 49.375 C 77.734375 48.527344 77.398438 47.714844 76.796875 47.117188 C 76.199219 46.519531 75.386719 46.183594 74.539062 46.183594 C 73.691406 46.183594 72.878906 46.519531 72.28125 47.117188 C 71.683594 47.714844 71.347656 48.527344 71.347656 49.375 C 71.347656 50.222656 71.683594 51.035156 72.28125 51.632812 C 72.878906 52.234375 73.691406 52.570312 74.539062 52.570312 Z M 74.539062 52.570312 "/>
<path style="fill-rule:nonzero;fill:rgb(9%,9%,9%);stroke-opacity:1;stroke-miterlimit:4;" d="M 98.804688 54.417969 C 99.535156 54.417969 100.234375 54.128906 100.753906 53.609375 C 101.269531 53.09375 101.558594 52.394531 101.558594 51.660156 C 101.558594 50.929688 101.269531 50.230469 100.753906 49.714844 C 100.234375 49.195312 99.535156 48.90625 98.804688 48.90625 C 98.074219 48.90625 97.371094 49.195312 96.855469 49.714844 C 96.339844 50.230469 96.046875 50.929688 96.046875 51.660156 C 96.046875 52.394531 96.339844 53.09375 96.855469 53.609375 C 97.371094 54.128906 98.074219 54.417969 98.804688 54.417969 Z M 98.804688 54.417969 "/>
<path style="fill-rule:nonzero;fill:rgb(9%,9%,9%);stroke-opacity:1;stroke-miterlimit:4;" d="M 103.847656 37.222656 C 104.328125 37.222656 104.785156 37.03125 105.125 36.691406 C 105.464844 36.355469 105.652344 35.894531 105.652344 35.417969 C 105.652344 34.9375 105.464844 34.480469 105.125 34.140625 C 104.785156 33.804688 104.328125 33.613281 103.847656 33.613281 C 103.371094 33.613281 102.914062 33.804688 102.574219 34.140625 C 102.234375 34.480469 102.046875 34.9375 102.046875 35.417969 C 102.046875 35.894531 102.234375 36.355469 102.574219 36.691406 C 102.914062 37.03125 103.371094 37.222656 103.847656 37.222656 Z M 103.847656 37.222656 "/>
<path style="fill-rule:nonzero;fill:rgb(9%,9%,9%);stroke-opacity:1;stroke-miterlimit:4;" d="M 109.714844 47.605469 C 110.515625 47.605469 111.28125 47.289062 111.847656 46.722656 C 112.410156 46.160156 112.730469 45.390625 112.730469 44.59375 C 112.730469 43.792969 112.410156 43.027344 111.847656 42.460938 C 111.28125 41.894531 110.515625 41.578125 109.714844 41.578125 C 108.914062 41.578125 108.148438 41.894531 107.582031 42.460938 C 107.015625 43.027344 106.699219 43.792969 106.699219 44.59375 C 106.699219 45.390625 107.015625 46.160156 107.582031 46.722656 C 108.148438 47.289062 108.914062 47.605469 109.714844 47.605469 Z M 109.714844 47.605469 "/>
<path style="fill-rule:nonzero;fill:rgb(9%,9%,9%);stroke-opacity:1;stroke-miterlimit:4;" d="M 79.601562 45.847656 C 80.421875 45.847656 81.210938 45.523438 81.789062 44.941406 C 82.371094 44.359375 82.695312 43.570312 82.695312 42.75 C 82.695312 41.929688 82.371094 41.140625 81.789062 40.558594 C 81.210938 39.980469 80.421875 39.652344 79.601562 39.652344 C 78.777344 39.652344 77.992188 39.980469 77.410156 40.558594 C 76.828125 41.140625 76.503906 41.929688 76.503906 42.75 C 76.503906 43.570312 76.828125 44.359375 77.410156 44.941406 C 77.992188 45.523438 78.777344 45.847656 79.601562 45.847656 Z M 79.601562 45.847656 "/>
<path style="fill-rule:nonzero;fill:rgb(9%,9%,9%);stroke-opacity:1;stroke-miterlimit:4;" d="M 40.796875 75.617188 C 41.464844 75.617188 42.105469 75.351562 42.574219 74.878906 C 43.046875 74.410156 43.3125 73.769531 43.3125 73.101562 C 43.3125 72.4375 43.046875 71.796875 42.574219 71.328125 C 42.105469 70.855469 41.464844 70.589844 40.796875 70.589844 C 40.132812 70.589844 39.492188 70.855469 39.019531 71.328125 C 38.550781 71.796875 38.285156 72.4375 38.285156 73.101562 C 38.285156 73.769531 38.550781 74.410156 39.019531 74.878906 C 39.492188 75.351562 40.132812 75.617188 40.796875 75.617188 Z M 40.796875 75.617188 "/>
<path style="fill-rule:nonzero;fill:rgb(9%,9%,9%);stroke-opacity:1;stroke-miterlimit:4;" d="M 123.582031 48.90625 C 124.597656 48.90625 125.574219 48.503906 126.289062 47.785156 C 127.007812 47.066406 127.410156 46.09375 127.410156 45.078125 C 127.410156 44.0625 127.007812 43.089844 126.289062 42.371094 C 125.574219 41.652344 124.597656 41.25 123.582031 41.25 C 122.570312 41.25 121.59375 41.652344 120.878906 42.371094 C 120.160156 43.089844 119.757812 44.0625 119.757812 45.078125 C 119.757812 46.09375 120.160156 47.066406 120.878906 47.785156 C 121.59375 48.503906 122.570312 48.90625 123.582031 48.90625 Z M 123.582031 48.90625 "/>
<path style="fill-rule:nonzero;fill:rgb(9%,9%,9%);stroke-opacity:1;stroke-miterlimit:4;" d="M 86.648438 46.3125 C 87.578125 46.3125 88.472656 45.941406 89.132812 45.285156 C 89.789062 44.625 90.160156 43.730469 90.160156 42.800781 C 90.160156 41.867188 89.789062 40.972656 89.132812 40.316406 C 88.472656 39.65625 87.578125 39.285156 86.648438 39.285156 C 85.714844 39.285156 84.820312 39.65625 84.164062 40.316406 C 83.503906 40.972656 83.132812 41.867188 83.132812 42.800781 C 83.132812 43.730469 83.503906 44.625 84.164062 45.285156 C 84.820312 45.941406 85.714844 46.3125 86.648438 46.3125 Z M 86.648438 46.3125 "/>
<path style="fill-rule:nonzero;fill:rgb(9%,9%,9%);stroke-opacity:1;stroke-miterlimit:4;" d="M 45.824219 49.144531 C 46.6875 49.144531 47.515625 48.800781 48.128906 48.191406 C 48.738281 47.582031 49.082031 46.75 49.082031 45.886719 C 49.082031 45.023438 48.738281 44.195312 48.128906 43.585938 C 47.515625 42.972656 46.6875 42.628906 45.824219 42.628906 C 44.960938 42.628906 44.132812 42.972656 43.519531 43.585938 C 42.910156 44.195312 42.566406 45.023438 42.566406 45.886719 C 42.566406 46.75 42.910156 47.582031 43.519531 48.191406 C 44.132812 48.800781 44.960938 49.144531 45.824219 49.144531 Z M 45.824219 49.144531 "/>
<path style="fill-rule:nonzero;fill:rgb(9%,9%,9%);stroke-opacity:1;stroke-miterlimit:4;" d="M 63.953125 40.734375 C 64.953125 40.734375 65.910156 40.335938 66.617188 39.632812 C 67.324219 38.925781 67.71875 37.96875 67.71875 36.96875 C 67.71875 35.96875 67.324219 35.011719 66.617188 34.304688 C 65.910156 33.597656 64.953125 33.203125 63.953125 33.203125 C 62.953125 33.203125 61.996094 33.597656 61.289062 34.304688 C 60.585938 35.011719 60.1875 35.96875 60.1875 36.96875 C 60.1875 37.96875 60.585938 38.925781 61.289062 39.632812 C 61.996094 40.335938 62.953125 40.734375 63.953125 40.734375 Z M 63.953125 40.734375 "/>
<path style="fill-rule:nonzero;fill:rgb(9%,9%,9%);stroke-opacity:1;stroke-miterlimit:4;" d="M 134.613281 45.804688 C 135.230469 45.804688 135.820312 45.5625 136.257812 45.125 C 136.695312 44.6875 136.941406 44.097656 136.941406 43.480469 C 136.941406 42.863281 136.695312 42.269531 136.257812 41.835938 C 135.820312 41.398438 135.230469 41.152344 134.613281 41.152344 C 133.996094 41.152344 133.40625 41.398438 132.96875 41.835938 C 132.53125 42.269531 132.289062 42.863281 132.289062 43.480469 C 132.289062 44.097656 132.53125 44.6875 132.96875 45.125 C 133.40625 45.5625 133.996094 45.804688 134.613281 45.804688 Z M 134.613281 45.804688 "/>
<path style="fill-rule:nonzero;fill:rgb(9%,9%,9%);stroke-opacity:1;stroke-miterlimit:4;" d="M 53.582031 36.304688 C 54.367188 36.304688 55.121094 35.996094 55.675781 35.4375 C 56.230469 34.882812 56.542969 34.132812 56.542969 33.347656 C 56.542969 32.5625 56.230469 31.808594 55.675781 31.253906 C 55.121094 30.699219 54.367188 30.386719 53.582031 30.386719 C 52.796875 30.386719 52.042969 30.699219 51.488281 31.253906 C 50.933594 31.808594 50.621094 32.5625 50.621094 33.347656 C 50.621094 34.132812 50.933594 34.882812 51.488281 35.4375 C 52.042969 35.996094 52.796875 36.304688 53.582031 36.304688 Z M 53.582031 36.304688 "/>
<path style="fill-rule:nonzero;fill:rgb(9%,9%,9%);stroke-opacity:1;stroke-miterlimit:4;" d="M 66.925781 49.558594 C 67.59375 49.558594 68.234375 49.296875 68.707031 48.824219 C 69.179688 48.351562 69.445312 47.710938 69.445312 47.042969 C 69.445312 46.375 69.179688 45.734375 68.707031 45.261719 C 68.234375 44.789062 67.59375 44.523438 66.925781 44.523438 C 66.257812 44.523438 65.617188 44.789062 65.144531 45.261719 C 64.671875 45.734375 64.40625 46.375 64.40625 47.042969 C 64.40625 47.710938 64.671875 48.351562 65.144531 48.824219 C 65.617188 49.296875 66.257812 49.558594 66.925781 49.558594 Z M 66.925781 49.558594 "/>
<path style="fill-rule:nonzero;fill:rgb(9%,9%,9%);stroke-opacity:1;stroke-miterlimit:4;" d="M 72.960938 44.09375 C 73.636719 44.09375 74.289062 43.824219 74.769531 43.34375 C 75.25 42.863281 75.519531 42.214844 75.519531 41.535156 C 75.519531 40.855469 75.25 40.207031 74.769531 39.726562 C 74.289062 39.246094 73.636719 38.976562 72.960938 38.976562 C 72.28125 38.976562 71.628906 39.246094 71.148438 39.726562 C 70.671875 40.207031 70.402344 40.855469 70.402344 41.535156 C 70.402344 42.214844 70.671875 42.863281 71.148438 43.34375 C 71.628906 43.824219 72.28125 44.09375 72.960938 44.09375 Z M 72.960938 44.09375 "/>
<path style="fill-rule:nonzero;fill:rgb(9%,9%,9%);stroke-opacity:1;stroke-miterlimit:4;" d="M 33.441406 50.59375 C 34.125 50.59375 34.78125 50.324219 35.261719 49.839844 C 35.746094 49.355469 36.019531 48.703125 36.019531 48.019531 C 36.019531 47.335938 35.746094 46.679688 35.261719 46.195312 C 34.78125 45.714844 34.125 45.441406 33.441406 45.441406 C 32.757812 45.441406 32.101562 45.714844 31.621094 46.195312 C 31.136719 46.679688 30.867188 47.335938 30.867188 48.019531 C 30.867188 48.703125 31.136719 49.355469 31.621094 49.839844 C 32.101562 50.324219 32.757812 50.59375 33.441406 50.59375 Z M 33.441406 50.59375 "/>
<path style="fill-rule:nonzero;fill:rgb(9%,9%,9%);stroke-opacity:1;stroke-miterlimit:4;" d="M 40.535156 40.578125 C 41.164062 40.578125 41.761719 40.328125 42.207031 39.886719 C 42.648438 39.441406 42.898438 38.839844 42.898438 38.214844 C 42.898438 37.585938 42.648438 36.988281 42.207031 36.542969 C 41.761719 36.101562 41.164062 35.851562 40.535156 35.851562 C 39.910156 35.851562 39.308594 36.101562 38.863281 36.542969 C 38.421875 36.988281 38.171875 37.585938 38.171875 38.214844 C 38.171875 38.839844 38.421875 39.441406 38.863281 39.886719 C 39.308594 40.328125 39.910156 40.578125 40.535156 40.578125 Z M 40.535156 40.578125 "/>
<path style="fill-rule:nonzero;fill:rgb(9%,9%,9%);stroke-opacity:1;stroke-miterlimit:4;" d="M 95.058594 47.914062 C 95.585938 47.914062 96.089844 47.707031 96.460938 47.335938 C 96.832031 46.960938 97.039062 46.457031 97.039062 45.933594 C 97.039062 45.40625 96.832031 44.902344 96.460938 44.53125 C 96.089844 44.160156 95.585938 43.953125 95.058594 43.953125 C 94.535156 43.953125 94.03125 44.160156 93.660156 44.53125 C 93.289062 44.902344 93.078125 45.40625 93.078125 45.933594 C 93.078125 46.457031 93.289062 46.960938 93.660156 47.335938 C 94.03125 47.707031 94.535156 47.914062 95.058594 47.914062 Z M 95.058594 47.914062 "/>
<path style="fill-rule:nonzero;fill:rgb(9%,9%,9%);stroke-opacity:1;stroke-miterlimit:4;" d="M 31.625 63.636719 C 32.492188 63.636719 33.324219 63.289062 33.9375 62.675781 C 34.554688 62.0625 34.898438 61.230469 34.898438 60.359375 C 34.898438 59.492188 34.554688 58.660156 33.9375 58.046875 C 33.324219 57.433594 32.492188 57.085938 31.625 57.085938 C 30.757812 57.085938 29.921875 57.433594 29.308594 58.046875 C 28.695312 58.660156 28.351562 59.492188 28.351562 60.359375 C 28.351562 61.230469 28.695312 62.0625 29.308594 62.675781 C 29.921875 63.289062 30.757812 63.636719 31.625 63.636719 Z M 31.625 63.636719 "/>
<path style="fill-rule:nonzero;fill:rgb(9%,9%,9%);stroke-opacity:1;stroke-miterlimit:4;" d="M 24.3125 58.113281 C 24.964844 58.113281 25.589844 57.855469 26.054688 57.394531 C 26.515625 56.933594 26.773438 56.308594 26.773438 55.652344 C 26.773438 55 26.515625 54.375 26.054688 53.914062 C 25.589844 53.453125 24.964844 53.191406 24.3125 53.191406 C 23.660156 53.191406 23.035156 53.453125 22.570312 53.914062 C 22.109375 54.375 21.851562 55 21.851562 55.652344 C 21.851562 56.308594 22.109375 56.933594 22.570312 57.394531 C 23.035156 57.855469 23.660156 58.113281 24.3125 58.113281 Z M 24.3125 58.113281 "/>
<path style="fill-rule:nonzero;fill:rgb(9%,9%,9%);stroke-opacity:1;stroke-miterlimit:4;" d="M 101.816406 47.339844 C 102.472656 47.339844 103.101562 47.078125 103.566406 46.613281 C 104.03125 46.148438 104.289062 45.519531 104.289062 44.863281 C 104.289062 44.207031 104.03125 43.578125 103.566406 43.113281 C 103.101562 42.648438 102.472656 42.386719 101.816406 42.386719 C 101.160156 42.386719 100.527344 42.648438 100.066406 43.113281 C 99.601562 43.578125 99.339844 44.207031 99.339844 44.863281 C 99.339844 45.519531 99.601562 46.148438 100.066406 46.613281 C 100.527344 47.078125 101.160156 47.339844 101.816406 47.339844 Z M 101.816406 47.339844 "/>
<path style="fill-rule:nonzero;fill:rgb(9%,9%,9%);stroke-opacity:1;stroke-miterlimit:4;" d="M 45.53125 60.195312 C 46.542969 60.195312 47.515625 59.792969 48.230469 59.078125 C 48.945312 58.359375 49.347656 57.390625 49.347656 56.378906 C 49.347656 55.367188 48.945312 54.394531 48.230469 53.679688 C 47.515625 52.964844 46.542969 52.5625 45.53125 52.5625 C 44.519531 52.5625 43.546875 52.964844 42.832031 53.679688 C 42.117188 54.394531 41.714844 55.367188 41.714844 56.378906 C 41.714844 57.390625 42.117188 58.359375 42.832031 59.078125 C 43.546875 59.792969 44.519531 60.195312 45.53125 60.195312 Z M 45.53125 60.195312 "/>
<path style="fill-rule:nonzero;fill:rgb(9%,9%,9%);stroke-opacity:1;stroke-miterlimit:4;" d="M 129.609375 42.84375 C 130.621094 42.84375 131.597656 42.4375 132.3125 41.722656 C 133.03125 41.003906 133.433594 40.03125 133.433594 39.015625 C 133.433594 38 133.03125 37.027344 132.3125 36.308594 C 131.597656 35.59375 130.621094 35.191406 129.609375 35.191406 C 128.59375 35.191406 127.621094 35.59375 126.902344 36.308594 C 126.183594 37.027344 125.78125 38 125.78125 39.015625 C 125.78125 40.03125 126.183594 41.003906 126.902344 41.722656 C 127.621094 42.4375 128.59375 42.84375 129.609375 42.84375 Z M 129.609375 42.84375 "/>
<path style="fill-rule:nonzero;fill:rgb(9%,9%,9%);stroke-opacity:1;stroke-miterlimit:4;" d="M 33.652344 78.894531 C 34.242188 78.894531 34.808594 78.660156 35.222656 78.242188 C 35.640625 77.828125 35.875 77.261719 35.875 76.671875 C 35.875 76.085938 35.640625 75.519531 35.222656 75.101562 C 34.808594 74.6875 34.242188 74.453125 33.652344 74.453125 C 33.066406 74.453125 32.5 74.6875 32.082031 75.101562 C 31.667969 75.519531 31.433594 76.085938 31.433594 76.671875 C 31.433594 77.261719 31.667969 77.828125 32.082031 78.242188 C 32.5 78.660156 33.066406 78.894531 33.652344 78.894531 Z M 33.652344 78.894531 "/>
<path style="fill-rule:nonzero;fill:rgb(9%,9%,9%);stroke-opacity:1;stroke-miterlimit:4;" d="M 89.125 35.578125 C 89.933594 35.578125 90.710938 35.253906 91.285156 34.683594 C 91.855469 34.109375 92.179688 33.332031 92.179688 32.523438 C 92.179688 31.714844 91.855469 30.9375 91.285156 30.363281 C 90.710938 29.792969 89.933594 29.46875 89.125 29.46875 C 88.316406 29.46875 87.539062 29.792969 86.964844 30.363281 C 86.394531 30.9375 86.074219 31.714844 86.074219 32.523438 C 86.074219 33.332031 86.394531 34.109375 86.964844 34.683594 C 87.539062 35.253906 88.316406 35.578125 89.125 35.578125 Z M 89.125 35.578125 "/>
<path style="fill-rule:nonzero;fill:rgb(9%,9%,9%);stroke-opacity:1;stroke-miterlimit:4;" d="M 152.5625 39.78125 C 153.386719 39.78125 154.179688 39.453125 154.765625 38.867188 C 155.351562 38.28125 155.679688 37.488281 155.679688 36.660156 C 155.679688 35.835938 155.351562 35.042969 154.765625 34.457031 C 154.179688 33.871094 153.386719 33.542969 152.5625 33.542969 C 151.734375 33.542969 150.941406 33.871094 150.355469 34.457031 C 149.769531 35.042969 149.441406 35.835938 149.441406 36.660156 C 149.441406 37.488281 149.769531 38.28125 150.355469 38.867188 C 150.941406 39.453125 151.734375 39.78125 152.5625 39.78125 Z M 152.5625 39.78125 "/>
<path style="fill-rule:nonzero;fill:rgb(9%,9%,9%);stroke-opacity:1;stroke-miterlimit:4;" d="M 111.070312 38.191406 C 111.730469 38.191406 112.359375 37.929688 112.824219 37.464844 C 113.292969 37 113.554688 36.367188 113.554688 35.707031 C 113.554688 35.050781 113.292969 34.417969 112.824219 33.953125 C 112.359375 33.488281 111.730469 33.226562 111.070312 33.226562 C 110.410156 33.226562 109.78125 33.488281 109.3125 33.953125 C 108.847656 34.417969 108.585938 35.050781 108.585938 35.707031 C 108.585938 36.367188 108.847656 37 109.3125 37.464844 C 109.78125 37.929688 110.410156 38.191406 111.070312 38.191406 Z M 111.070312 38.191406 "/>
<path style="fill-rule:nonzero;fill:rgb(9%,9%,9%);stroke-opacity:1;stroke-miterlimit:4;" d="M 56.925781 70.953125 C 57.785156 70.953125 58.609375 70.613281 59.214844 70.007812 C 59.824219 69.398438 60.164062 68.574219 60.164062 67.71875 C 60.164062 66.859375 59.824219 66.035156 59.214844 65.425781 C 58.609375 64.820312 57.785156 64.480469 56.925781 64.480469 C 56.066406 64.480469 55.246094 64.820312 54.636719 65.425781 C 54.03125 66.035156 53.6875 66.859375 53.6875 67.71875 C 53.6875 68.574219 54.03125 69.398438 54.636719 70.007812 C 55.246094 70.613281 56.066406 70.953125 56.925781 70.953125 Z M 56.925781 70.953125 "/>
<path style="fill-rule:nonzero;fill:rgb(9%,9%,9%);stroke-opacity:1;stroke-miterlimit:4;" d="M 119.492188 39.261719 C 120.316406 39.261719 121.101562 38.933594 121.683594 38.351562 C 122.265625 37.773438 122.59375 36.984375 122.59375 36.160156 C 122.59375 35.339844 122.265625 34.550781 121.683594 33.96875 C 121.101562 33.386719 120.316406 33.0625 119.492188 33.0625 C 118.671875 33.0625 117.882812 33.386719 117.300781 33.96875 C 116.71875 34.550781 116.394531 35.339844 116.394531 36.160156 C 116.394531 36.984375 116.71875 37.773438 117.300781 38.351562 C 117.882812 38.933594 118.671875 39.261719 119.492188 39.261719 Z M 119.492188 39.261719 "/>
<path style="fill-rule:nonzero;fill:rgb(9%,9%,9%);stroke-opacity:1;stroke-miterlimit:4;" d="M 141.445312 42.28125 C 142.125 42.28125 142.777344 42.011719 143.261719 41.53125 C 143.742188 41.046875 144.011719 40.394531 144.011719 39.714844 C 144.011719 39.03125 143.742188 38.378906 143.261719 37.898438 C 142.777344 37.414062 142.125 37.144531 141.445312 37.144531 C 140.761719 37.144531 140.109375 37.414062 139.625 37.898438 C 139.144531 38.378906 138.875 39.03125 138.875 39.714844 C 138.875 40.394531 139.144531 41.046875 139.625 41.53125 C 140.109375 42.011719 140.761719 42.28125 141.445312 42.28125 Z M 141.445312 42.28125 "/>
<path style="fill-rule:nonzero;fill:rgb(9%,9%,9%);stroke-opacity:1;stroke-miterlimit:4;" d="M 165.695312 47.851562 C 166.308594 47.851562 166.898438 47.605469 167.332031 47.171875 C 167.765625 46.738281 168.007812 46.148438 168.007812 45.535156 C 168.007812 44.921875 167.765625 44.332031 167.332031 43.898438 C 166.898438 43.464844 166.308594 43.21875 165.695312 43.21875 C 165.082031 43.21875 164.492188 43.464844 164.058594 43.898438 C 163.621094 44.332031 163.378906 44.921875 163.378906 45.535156 C 163.378906 46.148438 163.621094 46.738281 164.058594 47.171875 C 164.492188 47.605469 165.082031 47.851562 165.695312 47.851562 Z M 165.695312 47.851562 "/>
<path style="fill-rule:nonzero;fill:rgb(9%,9%,9%);stroke-opacity:1;stroke-miterlimit:4;" d="M 79.042969 30.835938 C 79.570312 30.835938 80.078125 30.625 80.453125 30.25 C 80.828125 29.875 81.039062 29.367188 81.039062 28.839844 C 81.039062 28.308594 80.828125 27.800781 80.453125 27.429688 C 80.078125 27.054688 79.570312 26.84375 79.042969 26.84375 C 78.511719 26.84375 78.003906 27.054688 77.628906 27.429688 C 77.257812 27.800781 77.046875 28.308594 77.046875 28.839844 C 77.046875 29.367188 77.257812 29.875 77.628906 30.25 C 78.003906 30.625 78.511719 30.835938 79.042969 30.835938 Z M 79.042969 30.835938 "/>
<path style="fill-rule:nonzero;fill:rgb(9%,9%,9%);stroke-opacity:1;stroke-miterlimit:4;" d="M 97.1875 25.355469 C 97.964844 25.355469 98.707031 25.046875 99.253906 24.5 C 99.800781 23.953125 100.109375 23.210938 100.109375 22.433594 C 100.109375 21.660156 99.800781 20.917969 99.253906 20.367188 C 98.707031 19.820312 97.964844 19.511719 97.1875 19.511719 C 96.414062 19.511719 95.671875 19.820312 95.121094 20.367188 C 94.574219 20.917969 94.265625 21.660156 94.265625 22.433594 C 94.265625 23.210938 94.574219 23.953125 95.121094 24.5 C 95.671875 25.046875 96.414062 25.355469 97.1875 25.355469 Z M 97.1875 25.355469 "/>
<path style="fill-rule:nonzero;fill:rgb(9%,9%,9%);stroke-opacity:1;stroke-miterlimit:4;" d="M 165.179688 41.019531 C 166.199219 41.019531 167.179688 40.613281 167.898438 39.890625 C 168.621094 39.167969 169.027344 38.191406 169.027344 37.167969 C 169.027344 36.148438 168.621094 35.167969 167.898438 34.449219 C 167.179688 33.726562 166.199219 33.320312 165.179688 33.320312 C 164.15625 33.320312 163.179688 33.726562 162.457031 34.449219 C 161.734375 35.167969 161.328125 36.148438 161.328125 37.167969 C 161.328125 38.191406 161.734375 39.167969 162.457031 39.890625 C 163.179688 40.613281 164.15625 41.019531 165.179688 41.019531 Z M 165.179688 41.019531 "/>
<path style="fill-rule:nonzero;fill:rgb(9%,9%,9%);stroke-opacity:1;stroke-miterlimit:4;" d="M 92.78125 42.589844 C 93.742188 42.589844 94.667969 42.207031 95.351562 41.527344 C 96.035156 40.84375 96.417969 39.917969 96.417969 38.953125 C 96.417969 37.988281 96.035156 37.0625 95.351562 36.382812 C 94.667969 35.699219 93.742188 35.316406 92.78125 35.316406 C 91.816406 35.316406 90.890625 35.699219 90.207031 36.382812 C 89.523438 37.0625 89.140625 37.988281 89.140625 38.953125 C 89.140625 39.917969 89.523438 40.84375 90.207031 41.527344 C 90.890625 42.207031 91.816406 42.589844 92.78125 42.589844 Z M 92.78125 42.589844 "/>
<path style="fill-rule:nonzero;fill:rgb(9%,9%,9%);stroke-opacity:1;stroke-miterlimit:4;" d="M 106.238281 28.960938 C 107.199219 28.960938 108.121094 28.578125 108.804688 27.898438 C 109.484375 27.214844 109.867188 26.292969 109.867188 25.332031 C 109.867188 24.367188 109.484375 23.445312 108.804688 22.765625 C 108.121094 22.085938 107.199219 21.703125 106.238281 21.703125 C 105.273438 21.703125 104.351562 22.085938 103.671875 22.765625 C 102.992188 23.445312 102.609375 24.367188 102.609375 25.332031 C 102.609375 26.292969 102.992188 27.214844 103.671875 27.898438 C 104.351562 28.578125 105.273438 28.960938 106.238281 28.960938 Z M 106.238281 28.960938 "/>
<path style="fill-rule:nonzero;fill:rgb(9%,9%,9%);stroke-opacity:1;stroke-miterlimit:4;" d="M 137.695312 33.378906 C 138.691406 33.378906 139.648438 32.984375 140.355469 32.277344 C 141.058594 31.574219 141.457031 30.617188 141.457031 29.621094 C 141.457031 28.625 141.058594 27.667969 140.355469 26.960938 C 139.648438 26.257812 138.691406 25.863281 137.695312 25.863281 C 136.699219 25.863281 135.742188 26.257812 135.039062 26.960938 C 134.332031 27.667969 133.9375 28.625 133.9375 29.621094 C 133.9375 30.617188 134.332031 31.574219 135.039062 32.277344 C 135.742188 32.984375 136.699219 33.378906 137.695312 33.378906 Z M 137.695312 33.378906 "/>
<path style="fill-rule:nonzero;fill:rgb(9%,9%,9%);stroke-opacity:1;stroke-miterlimit:4;" d="M 176.613281 57.011719 C 177.558594 57.011719 178.464844 56.636719 179.132812 55.96875 C 179.800781 55.304688 180.175781 54.398438 180.175781 53.453125 C 180.175781 52.511719 179.800781 51.605469 179.132812 50.9375 C 178.464844 50.269531 177.558594 49.894531 176.613281 49.894531 C 175.671875 49.894531 174.765625 50.269531 174.097656 50.9375 C 173.429688 51.605469 173.054688 52.511719 173.054688 53.453125 C 173.054688 54.398438 173.429688 55.304688 174.097656 55.96875 C 174.765625 56.636719 175.671875 57.011719 176.613281 57.011719 Z M 176.613281 57.011719 "/>
<path style="fill-rule:nonzero;fill:rgb(9%,9%,9%);stroke-opacity:1;stroke-miterlimit:4;" d="M 96.367188 13.925781 C 96.90625 13.925781 97.421875 13.710938 97.804688 13.328125 C 98.183594 12.949219 98.398438 12.429688 98.398438 11.890625 C 98.398438 11.355469 98.183594 10.835938 97.804688 10.457031 C 97.421875 10.074219 96.90625 9.859375 96.367188 9.859375 C 95.828125 9.859375 95.308594 10.074219 94.929688 10.457031 C 94.546875 10.835938 94.335938 11.355469 94.335938 11.890625 C 94.335938 12.429688 94.546875 12.949219 94.929688 13.328125 C 95.308594 13.710938 95.828125 13.925781 96.367188 13.925781 Z M 96.367188 13.925781 "/>
<path style="fill-rule:nonzero;fill:rgb(9%,9%,9%);stroke-opacity:1;stroke-miterlimit:4;" d="M 128.816406 35.496094 C 129.722656 35.496094 130.589844 35.136719 131.230469 34.496094 C 131.871094 33.855469 132.230469 32.988281 132.230469 32.082031 C 132.230469 31.179688 131.871094 30.308594 131.230469 29.671875 C 130.589844 29.03125 129.722656 28.671875 128.816406 28.671875 C 127.914062 28.671875 127.042969 29.03125 126.40625 29.671875 C 125.765625 30.308594 125.40625 31.179688 125.40625 32.082031 C 125.40625 32.988281 125.765625 33.855469 126.40625 34.496094 C 127.042969 35.136719 127.914062 35.496094 128.816406 35.496094 Z M 128.816406 35.496094 "/>
<path style="fill-rule:nonzero;fill:rgb(9%,9%,9%);stroke-opacity:1;stroke-miterlimit:4;" d="M 124.25 28.941406 C 124.980469 28.941406 125.683594 28.652344 126.199219 28.132812 C 126.714844 27.617188 127.007812 26.917969 127.007812 26.1875 C 127.007812 25.457031 126.714844 24.753906 126.199219 24.238281 C 125.683594 23.722656 124.980469 23.433594 124.25 23.433594 C 123.519531 23.433594 122.820312 23.722656 122.304688 24.238281 C 121.789062 24.753906 121.496094 25.457031 121.496094 26.1875 C 121.496094 26.917969 121.789062 27.617188 122.304688 28.132812 C 122.820312 28.652344 123.519531 28.941406 124.25 28.941406 Z M 124.25 28.941406 "/>
<path style="fill-rule:nonzero;fill:rgb(9%,9%,9%);stroke-opacity:1;stroke-miterlimit:4;" d="M 110.410156 22.945312 C 111.347656 22.945312 112.246094 22.570312 112.910156 21.910156 C 113.574219 21.246094 113.945312 20.347656 113.945312 19.410156 C 113.945312 18.472656 113.574219 17.574219 112.910156 16.910156 C 112.246094 16.246094 111.347656 15.875 110.410156 15.875 C 109.472656 15.875 108.574219 16.246094 107.910156 16.910156 C 107.25 17.574219 106.875 18.472656 106.875 19.410156 C 106.875 20.347656 107.25 21.246094 107.910156 21.910156 C 108.574219 22.570312 109.472656 22.945312 110.410156 22.945312 Z M 110.410156 22.945312 "/>
<path style="fill-rule:nonzero;fill:rgb(9%,9%,9%);stroke-opacity:1;stroke-miterlimit:4;" d="M 71.425781 37.355469 C 72.476562 37.355469 73.484375 36.9375 74.226562 36.195312 C 74.96875 35.453125 75.386719 34.445312 75.386719 33.394531 C 75.386719 32.34375 74.96875 31.335938 74.226562 30.59375 C 73.484375 29.851562 72.476562 29.433594 71.425781 29.433594 C 70.375 29.433594 69.367188 29.851562 68.625 30.59375 C 67.882812 31.335938 67.464844 32.34375 67.464844 33.394531 C 67.464844 34.445312 67.882812 35.453125 68.625 36.195312 C 69.367188 36.9375 70.375 37.355469 71.425781 37.355469 Z M 71.425781 37.355469 "/>
<path style="fill-rule:nonzero;fill:rgb(9%,9%,9%);stroke-opacity:1;stroke-miterlimit:4;" d="M 46.984375 31.523438 C 47.554688 31.523438 48.105469 31.296875 48.507812 30.890625 C 48.914062 30.484375 49.140625 29.9375 49.140625 29.363281 C 49.140625 28.792969 48.914062 28.246094 48.507812 27.839844 C 48.105469 27.433594 47.554688 27.207031 46.984375 27.207031 C 46.410156 27.207031 45.863281 27.433594 45.457031 27.839844 C 45.054688 28.246094 44.824219 28.792969 44.824219 29.363281 C 44.824219 29.9375 45.054688 30.484375 45.457031 30.890625 C 45.863281 31.296875 46.410156 31.523438 46.984375 31.523438 Z M 46.984375 31.523438 "/>
<path style="fill-rule:nonzero;fill:rgb(9%,9%,9%);stroke-opacity:1;stroke-miterlimit:4;" d="M 57.238281 30.074219 C 57.980469 30.074219 58.691406 29.78125 59.21875 29.257812 C 59.742188 28.730469 60.035156 28.019531 60.035156 27.277344 C 60.035156 26.535156 59.742188 25.824219 59.21875 25.300781 C 58.691406 24.777344 57.980469 24.480469 57.238281 24.480469 C 56.5 24.480469 55.785156 24.777344 55.261719 25.300781 C 54.738281 25.824219 54.441406 26.535156 54.441406 27.277344 C 54.441406 28.019531 54.738281 28.730469 55.261719 29.257812 C 55.785156 29.78125 56.5 30.074219 57.238281 30.074219 Z M 57.238281 30.074219 "/>
<path style="fill-rule:nonzero;fill:rgb(9%,9%,9%);stroke-opacity:1;stroke-miterlimit:4;" d="M 151.214844 47.019531 C 152.128906 47.019531 153.003906 46.65625 153.652344 46.011719 C 154.296875 45.363281 154.660156 44.488281 154.660156 43.574219 C 154.660156 42.660156 154.296875 41.78125 153.652344 41.136719 C 153.003906 40.488281 152.128906 40.125 151.214844 40.125 C 150.296875 40.125 149.421875 40.488281 148.773438 41.136719 C 148.128906 41.78125 147.765625 42.660156 147.765625 43.574219 C 147.765625 44.488281 148.128906 45.363281 148.773438 46.011719 C 149.421875 46.65625 150.296875 47.019531 151.214844 47.019531 Z M 151.214844 47.019531 "/>
<path style="fill-rule:nonzero;fill:rgb(9%,9%,9%);stroke-opacity:1;stroke-miterlimit:4;" d="M 113.390625 28.847656 C 113.898438 28.847656 114.386719 28.648438 114.746094 28.289062 C 115.101562 27.929688 115.304688 27.441406 115.304688 26.933594 C 115.304688 26.425781 115.101562 25.9375 114.746094 25.582031 C 114.386719 25.222656 113.898438 25.019531 113.390625 25.019531 C 112.882812 25.019531 112.394531 25.222656 112.039062 25.582031 C 111.679688 25.9375 111.476562 26.425781 111.476562 26.933594 C 111.476562 27.441406 111.679688 27.929688 112.039062 28.289062 C 112.394531 28.648438 112.882812 28.847656 113.390625 28.847656 Z M 113.390625 28.847656 "/>
<path style="fill-rule:nonzero;fill:rgb(9%,9%,9%);stroke-opacity:1;stroke-miterlimit:4;" d="M 72.738281 29.234375 C 73.703125 29.234375 74.625 28.851562 75.304688 28.171875 C 75.988281 27.488281 76.371094 26.566406 76.371094 25.601562 C 76.371094 24.640625 75.988281 23.714844 75.304688 23.035156 C 74.625 22.355469 73.703125 21.972656 72.738281 21.972656 C 71.777344 21.972656 70.851562 22.355469 70.171875 23.035156 C 69.492188 23.714844 69.109375 24.640625 69.109375 25.601562 C 69.109375 26.566406 69.492188 27.488281 70.171875 28.171875 C 70.851562 28.851562 71.777344 29.234375 72.738281 29.234375 Z M 72.738281 29.234375 "/>
<path style="fill-rule:nonzero;fill:rgb(9%,9%,9%);stroke-opacity:1;stroke-miterlimit:4;" d="M 19.460938 73.742188 C 20.296875 73.742188 21.101562 73.410156 21.691406 72.816406 C 22.285156 72.226562 22.617188 71.421875 22.617188 70.585938 C 22.617188 69.75 22.285156 68.945312 21.691406 68.355469 C 21.101562 67.761719 20.296875 67.429688 19.460938 67.429688 C 18.625 67.429688 17.820312 67.761719 17.230469 68.355469 C 16.636719 68.945312 16.304688 69.75 16.304688 70.585938 C 16.304688 71.421875 16.636719 72.226562 17.230469 72.816406 C 17.820312 73.410156 18.625 73.742188 19.460938 73.742188 Z M 19.460938 73.742188 "/>
<path style="fill-rule:nonzero;fill:rgb(9%,9%,9%);stroke-opacity:1;stroke-miterlimit:4;" d="M 27.871094 74.832031 C 28.84375 74.832031 29.777344 74.445312 30.464844 73.757812 C 31.152344 73.070312 31.539062 72.136719 31.539062 71.164062 C 31.539062 70.191406 31.152344 69.257812 30.464844 68.570312 C 29.777344 67.882812 28.84375 67.496094 27.871094 67.496094 C 26.898438 67.496094 25.964844 67.882812 25.277344 68.570312 C 24.589844 69.257812 24.203125 70.191406 24.203125 71.164062 C 24.203125 72.136719 24.589844 73.070312 25.277344 73.757812 C 25.964844 74.445312 26.898438 74.832031 27.871094 74.832031 Z M 27.871094 74.832031 "/>
<path style="fill-rule:nonzero;fill:rgb(9%,9%,9%);stroke-opacity:1;stroke-miterlimit:4;" d="M 57.507812 42.496094 C 58.445312 42.496094 59.34375 42.125 60.003906 41.460938 C 60.667969 40.800781 61.039062 39.902344 61.039062 38.96875 C 61.039062 38.03125 60.667969 37.132812 60.003906 36.472656 C 59.34375 35.808594 58.445312 35.4375 57.507812 35.4375 C 56.574219 35.4375 55.675781 35.808594 55.011719 36.472656 C 54.351562 37.132812 53.980469 38.03125 53.980469 38.96875 C 53.980469 39.902344 54.351562 40.800781 55.011719 41.460938 C 55.675781 42.125 56.574219 42.496094 57.507812 42.496094 Z M 57.507812 42.496094 "/>
<path style="fill-rule:nonzero;fill:rgb(9%,9%,9%);stroke-opacity:1;stroke-miterlimit:4;" d="M 20.5 65.882812 C 21.222656 65.882812 21.917969 65.597656 22.433594 65.082031 C 22.945312 64.570312 23.234375 63.875 23.234375 63.148438 C 23.234375 62.421875 22.945312 61.726562 22.433594 61.214844 C 21.917969 60.703125 21.222656 60.414062 20.5 60.414062 C 19.773438 60.414062 19.078125 60.703125 18.5625 61.214844 C 18.050781 61.726562 17.761719 62.421875 17.761719 63.148438 C 17.761719 63.875 18.050781 64.570312 18.5625 65.082031 C 19.078125 65.597656 19.773438 65.882812 20.5 65.882812 Z M 20.5 65.882812 "/>
<path style="fill-rule:nonzero;fill:rgb(9%,9%,9%);stroke-opacity:1;stroke-miterlimit:4;" d="M 130.8125 26.171875 C 131.605469 26.171875 132.367188 25.855469 132.929688 25.292969 C 133.488281 24.730469 133.804688 23.96875 133.804688 23.175781 C 133.804688 22.382812 133.488281 21.621094 132.929688 21.058594 C 132.367188 20.5 131.605469 20.183594 130.8125 20.183594 C 130.015625 20.183594 129.253906 20.5 128.695312 21.058594 C 128.132812 21.621094 127.816406 22.382812 127.816406 23.175781 C 127.816406 23.96875 128.132812 24.730469 128.695312 25.292969 C 129.253906 25.855469 130.015625 26.171875 130.8125 26.171875 Z M 130.8125 26.171875 "/>
<path style="fill-rule:nonzero;fill:rgb(9%,9%,9%);stroke-opacity:1;stroke-miterlimit:4;" d="M 47.46875 38.742188 C 48.191406 38.742188 48.882812 38.453125 49.394531 37.945312 C 49.90625 37.433594 50.191406 36.738281 50.191406 36.015625 C 50.191406 35.292969 49.90625 34.601562 49.394531 34.089844 C 48.882812 33.578125 48.191406 33.292969 47.46875 33.292969 C 46.746094 33.292969 46.050781 33.578125 45.542969 34.089844 C 45.03125 34.601562 44.742188 35.292969 44.742188 36.015625 C 44.742188 36.738281 45.03125 37.433594 45.542969 37.945312 C 46.050781 38.453125 46.746094 38.742188 47.46875 38.742188 Z M 47.46875 38.742188 "/>
<path style="fill-rule:nonzero;fill:rgb(9%,9%,9%);stroke-opacity:1;stroke-miterlimit:4;" d="M 34.261719 71.554688 C 35.273438 71.554688 36.246094 71.152344 36.960938 70.4375 C 37.679688 69.71875 38.082031 68.75 38.082031 67.734375 C 38.082031 66.722656 37.679688 65.75 36.960938 65.035156 C 36.246094 64.316406 35.273438 63.914062 34.261719 63.914062 C 33.246094 63.914062 32.273438 64.316406 31.558594 65.035156 C 30.84375 65.75 30.4375 66.722656 30.4375 67.734375 C 30.4375 68.75 30.84375 69.71875 31.558594 70.4375 C 32.273438 71.152344 33.246094 71.554688 34.261719 71.554688 Z M 34.261719 71.554688 "/>
<path style="fill-rule:nonzero;fill:rgb(9%,9%,9%);stroke-opacity:1;stroke-miterlimit:4;" d="M 158.46875 45.554688 C 159.460938 45.554688 160.410156 45.160156 161.113281 44.457031 C 161.816406 43.757812 162.210938 42.804688 162.210938 41.8125 C 162.210938 40.820312 161.816406 39.867188 161.113281 39.164062 C 160.410156 38.460938 159.460938 38.066406 158.46875 38.066406 C 157.472656 38.066406 156.523438 38.460938 155.820312 39.164062 C 155.117188 39.867188 154.722656 40.820312 154.722656 41.8125 C 154.722656 42.804688 155.117188 43.757812 155.820312 44.457031 C 156.523438 45.160156 157.472656 45.554688 158.46875 45.554688 Z M 158.46875 45.554688 "/>
<path style="fill-rule:nonzero;fill:rgb(9%,9%,9%);stroke-opacity:1;stroke-miterlimit:4;" d="M 171.964844 45.109375 C 172.648438 45.109375 173.300781 44.835938 173.785156 44.355469 C 174.269531 43.871094 174.539062 43.21875 174.539062 42.535156 C 174.539062 41.851562 174.269531 41.195312 173.785156 40.714844 C 173.300781 40.230469 172.648438 39.960938 171.964844 39.960938 C 171.28125 39.960938 170.625 40.230469 170.144531 40.714844 C 169.660156 41.195312 169.390625 41.851562 169.390625 42.535156 C 169.390625 43.21875 169.660156 43.871094 170.144531 44.355469 C 170.625 44.835938 171.28125 45.109375 171.964844 45.109375 Z M 171.964844 45.109375 "/>
<path style="fill-rule:nonzero;fill:rgb(9%,9%,9%);stroke-opacity:1;stroke-miterlimit:4;" d="M 82.949219 38.734375 C 83.710938 38.734375 84.441406 38.433594 84.980469 37.894531 C 85.515625 37.359375 85.820312 36.628906 85.820312 35.867188 C 85.820312 35.109375 85.515625 34.378906 84.980469 33.839844 C 84.441406 33.300781 83.710938 33 82.949219 33 C 82.191406 33 81.460938 33.300781 80.921875 33.839844 C 80.386719 34.378906 80.082031 35.109375 80.082031 35.867188 C 80.082031 36.628906 80.386719 37.359375 80.921875 37.894531 C 81.460938 38.433594 82.191406 38.734375 82.949219 38.734375 Z M 82.949219 38.734375 "/>
<path style="fill-rule:nonzero;fill:rgb(9%,9%,9%);stroke-opacity:1;stroke-miterlimit:4;" d="M 145.90625 35.511719 C 146.542969 35.511719 147.152344 35.257812 147.605469 34.808594 C 148.054688 34.359375 148.308594 33.746094 148.308594 33.109375 C 148.308594 32.472656 148.054688 31.863281 147.605469 31.410156 C 147.152344 30.960938 146.542969 30.707031 145.90625 30.707031 C 145.269531 30.707031 144.65625 30.960938 144.207031 31.410156 C 143.757812 31.863281 143.503906 32.472656 143.503906 33.109375 C 143.503906 33.746094 143.757812 34.359375 144.207031 34.808594 C 144.65625 35.257812 145.269531 35.511719 145.90625 35.511719 Z M 145.90625 35.511719 "/>
<path style="fill-rule:nonzero;fill:rgb(9%,9%,9%);stroke-opacity:1;stroke-miterlimit:4;" d="M 144.875 29.492188 C 145.914062 29.492188 146.910156 29.082031 147.644531 28.347656 C 148.378906 27.613281 148.792969 26.613281 148.792969 25.578125 C 148.792969 24.539062 148.378906 23.539062 147.644531 22.804688 C 146.910156 22.070312 145.914062 21.660156 144.875 21.660156 C 143.835938 21.660156 142.839844 22.070312 142.105469 22.804688 C 141.367188 23.539062 140.957031 24.539062 140.957031 25.578125 C 140.957031 26.613281 141.367188 27.613281 142.105469 28.347656 C 142.839844 29.082031 143.835938 29.492188 144.875 29.492188 Z M 144.875 29.492188 "/>
<path style="fill-rule:nonzero;fill:rgb(9%,9%,9%);stroke-opacity:1;stroke-miterlimit:4;" d="M 96.574219 36.171875 C 97.503906 36.171875 98.394531 35.800781 99.050781 35.144531 C 99.707031 34.488281 100.078125 33.597656 100.078125 32.667969 C 100.078125 31.738281 99.707031 30.847656 99.050781 30.191406 C 98.394531 29.535156 97.503906 29.164062 96.574219 29.164062 C 95.644531 29.164062 94.753906 29.535156 94.097656 30.191406 C 93.441406 30.847656 93.070312 31.738281 93.070312 32.667969 C 93.070312 33.597656 93.441406 34.488281 94.097656 35.144531 C 94.753906 35.800781 95.644531 36.171875 96.574219 36.171875 Z M 96.574219 36.171875 "/>
<path style="fill-rule:nonzero;fill:rgb(9%,9%,9%);stroke-opacity:1;stroke-miterlimit:4;" d="M 170.585938 53.101562 C 171.382812 53.101562 172.148438 52.785156 172.710938 52.21875 C 173.277344 51.65625 173.59375 50.894531 173.59375 50.097656 C 173.59375 49.300781 173.277344 48.535156 172.710938 47.972656 C 172.148438 47.40625 171.382812 47.089844 170.585938 47.089844 C 169.789062 47.089844 169.027344 47.40625 168.464844 47.972656 C 167.898438 48.535156 167.582031 49.300781 167.582031 50.097656 C 167.582031 50.894531 167.898438 51.65625 168.464844 52.21875 C 169.027344 52.785156 169.789062 53.101562 170.585938 53.101562 Z M 170.585938 53.101562 "/>
<path style="fill-rule:nonzero;fill:rgb(9%,9%,9%);stroke-opacity:1;stroke-miterlimit:4;" d="M 27.148438 80.230469 C 27.617188 80.230469 28.066406 80.042969 28.394531 79.714844 C 28.726562 79.382812 28.914062 78.933594 28.914062 78.46875 C 28.914062 78 28.726562 77.550781 28.394531 77.222656 C 28.066406 76.890625 27.617188 76.707031 27.148438 76.707031 C 26.683594 76.707031 26.234375 76.890625 25.902344 77.222656 C 25.574219 77.550781 25.386719 78 25.386719 78.46875 C 25.386719 78.933594 25.574219 79.382812 25.902344 79.714844 C 26.234375 80.042969 26.683594 80.230469 27.148438 80.230469 Z M 27.148438 80.230469 "/>
<path style="fill-rule:nonzero;fill:rgb(9%,9%,9%);stroke-opacity:1;stroke-miterlimit:4;" d="M 64.1875 31.363281 C 65.058594 31.363281 65.894531 31.019531 66.511719 30.402344 C 67.128906 29.785156 67.476562 28.945312 67.476562 28.074219 C 67.476562 27.203125 67.128906 26.363281 66.511719 25.75 C 65.894531 25.132812 65.058594 24.785156 64.1875 24.785156 C 63.3125 24.785156 62.476562 25.132812 61.859375 25.75 C 61.242188 26.363281 60.894531 27.203125 60.894531 28.074219 C 60.894531 28.945312 61.242188 29.785156 61.859375 30.402344 C 62.476562 31.019531 63.3125 31.363281 64.1875 31.363281 Z M 64.1875 31.363281 "/>
<path style="fill-rule:nonzero;fill:rgb(9%,9%,9%);stroke-opacity:1;stroke-miterlimit:4;" d="M 88.203125 26 C 88.824219 26 89.421875 25.753906 89.863281 25.3125 C 90.304688 24.871094 90.550781 24.273438 90.550781 23.648438 C 90.550781 23.027344 90.304688 22.429688 89.863281 21.988281 C 89.421875 21.546875 88.824219 21.300781 88.203125 21.300781 C 87.578125 21.300781 86.980469 21.546875 86.539062 21.988281 C 86.101562 22.429688 85.851562 23.027344 85.851562 23.648438 C 85.851562 24.273438 86.101562 24.871094 86.539062 25.3125 C 86.980469 25.753906 87.578125 26 88.203125 26 Z M 88.203125 26 "/>
<path style="fill-rule:nonzero;fill:rgb(9%,9%,9%);stroke-opacity:1;stroke-miterlimit:4;" d="M 156.40625 33.238281 C 157.191406 33.238281 157.941406 32.925781 158.496094 32.371094 C 159.050781 31.816406 159.363281 31.0625 159.363281 30.28125 C 159.363281 29.496094 159.050781 28.742188 158.496094 28.1875 C 157.941406 27.632812 157.191406 27.324219 156.40625 27.324219 C 155.621094 27.324219 154.871094 27.632812 154.316406 28.1875 C 153.761719 28.742188 153.449219 29.496094 153.449219 30.28125 C 153.449219 31.0625 153.761719 31.816406 154.316406 32.371094 C 154.871094 32.925781 155.621094 33.238281 156.40625 33.238281 Z M 156.40625 33.238281 "/>
<path style="fill-rule:nonzero;fill:rgb(9%,9%,9%);stroke-opacity:1;stroke-miterlimit:4;" d="M 81.632812 21.253906 C 82.609375 21.253906 83.546875 20.867188 84.234375 20.175781 C 84.925781 19.488281 85.3125 18.550781 85.3125 17.578125 C 85.3125 16.601562 84.925781 15.667969 84.234375 14.976562 C 83.546875 14.289062 82.609375 13.898438 81.632812 13.898438 C 80.660156 13.898438 79.722656 14.289062 79.035156 14.976562 C 78.34375 15.667969 77.957031 16.601562 77.957031 17.578125 C 77.957031 18.550781 78.34375 19.488281 79.035156 20.175781 C 79.722656 20.867188 80.660156 21.253906 81.632812 21.253906 Z M 81.632812 21.253906 "/>
<path style="fill-rule:nonzero;fill:rgb(9%,9%,9%);stroke-opacity:1;stroke-miterlimit:4;" d="M 139.320312 24.765625 C 140.222656 24.765625 141.085938 24.40625 141.726562 23.769531 C 142.363281 23.132812 142.722656 22.269531 142.722656 21.367188 C 142.722656 20.464844 142.363281 19.597656 141.726562 18.960938 C 141.085938 18.324219 140.222656 17.964844 139.320312 17.964844 C 138.417969 17.964844 137.554688 18.324219 136.917969 18.960938 C 136.277344 19.597656 135.921875 20.464844 135.921875 21.367188 C 135.921875 22.269531 136.277344 23.132812 136.917969 23.769531 C 137.554688 24.40625 138.417969 24.765625 139.320312 24.765625 Z M 139.320312 24.765625 "/>
<path style="fill-rule:nonzero;fill:rgb(9%,9%,9%);stroke-opacity:1;stroke-miterlimit:4;" d="M 65.0625 21.140625 C 65.785156 21.140625 66.476562 20.855469 66.988281 20.34375 C 67.5 19.832031 67.785156 19.140625 67.785156 18.417969 C 67.785156 17.695312 67.5 17.003906 66.988281 16.492188 C 66.476562 15.980469 65.785156 15.695312 65.0625 15.695312 C 64.339844 15.695312 63.644531 15.980469 63.136719 16.492188 C 62.625 17.003906 62.335938 17.695312 62.335938 18.417969 C 62.335938 19.140625 62.625 19.832031 63.136719 20.34375 C 63.644531 20.855469 64.339844 21.140625 65.0625 21.140625 Z M 65.0625 21.140625 "/>
<path style="fill-rule:nonzero;fill:rgb(9%,9%,9%);stroke-opacity:1;stroke-miterlimit:4;" d="M 71.601562 19.035156 C 72.398438 19.035156 73.164062 18.71875 73.726562 18.15625 C 74.292969 17.589844 74.609375 16.828125 74.609375 16.03125 C 74.609375 15.234375 74.292969 14.46875 73.726562 13.90625 C 73.164062 13.34375 72.398438 13.023438 71.601562 13.023438 C 70.804688 13.023438 70.042969 13.34375 69.476562 13.90625 C 68.914062 14.46875 68.597656 15.234375 68.597656 16.03125 C 68.597656 16.828125 68.914062 17.589844 69.476562 18.15625 C 70.042969 18.71875 70.804688 19.035156 71.601562 19.035156 Z M 71.601562 19.035156 "/>
<path style="fill-rule:nonzero;fill:rgb(9%,9%,9%);stroke-opacity:1;stroke-miterlimit:4;" d="M 117.917969 15.269531 C 118.855469 15.269531 119.75 14.898438 120.410156 14.234375 C 121.074219 13.574219 121.445312 12.679688 121.445312 11.742188 C 121.445312 10.808594 121.074219 9.910156 120.410156 9.25 C 119.75 8.589844 118.855469 8.21875 117.917969 8.21875 C 116.984375 8.21875 116.085938 8.589844 115.425781 9.25 C 114.765625 9.910156 114.394531 10.808594 114.394531 11.742188 C 114.394531 12.679688 114.765625 13.574219 115.425781 14.234375 C 116.085938 14.898438 116.984375 15.269531 117.917969 15.269531 Z M 117.917969 15.269531 "/>
<path style="fill-rule:nonzero;fill:rgb(9%,9%,9%);stroke-opacity:1;stroke-miterlimit:4;" d="M 103.753906 16.015625 C 104.480469 16.015625 105.179688 15.726562 105.695312 15.214844 C 106.207031 14.699219 106.496094 14 106.496094 13.273438 C 106.496094 12.546875 106.207031 11.847656 105.695312 11.332031 C 105.179688 10.816406 104.480469 10.527344 103.753906 10.527344 C 103.027344 10.527344 102.328125 10.816406 101.8125 11.332031 C 101.296875 11.847656 101.007812 12.546875 101.007812 13.273438 C 101.007812 14 101.296875 14.699219 101.8125 15.214844 C 102.328125 15.726562 103.027344 16.015625 103.753906 16.015625 Z M 103.753906 16.015625 "/>
<path style="fill-rule:nonzero;fill:rgb(9%,9%,9%);stroke-opacity:1;stroke-miterlimit:4;" d="M 124.960938 19.363281 C 125.515625 19.363281 126.050781 19.144531 126.445312 18.75 C 126.835938 18.355469 127.058594 17.824219 127.058594 17.265625 C 127.058594 16.710938 126.835938 16.175781 126.445312 15.785156 C 126.050781 15.390625 125.515625 15.167969 124.960938 15.167969 C 124.402344 15.167969 123.871094 15.390625 123.476562 15.785156 C 123.082031 16.175781 122.863281 16.710938 122.863281 17.265625 C 122.863281 17.824219 123.082031 18.355469 123.476562 18.75 C 123.871094 19.144531 124.402344 19.363281 124.960938 19.363281 Z M 124.960938 19.363281 "/>
<path style="fill-rule:nonzero;fill:rgb(9%,9%,9%);stroke-opacity:1;stroke-miterlimit:4;" d="M 117.953125 22.585938 C 118.984375 22.585938 119.976562 22.175781 120.707031 21.445312 C 121.433594 20.71875 121.84375 19.726562 121.84375 18.695312 C 121.84375 17.664062 121.433594 16.671875 120.707031 15.945312 C 119.976562 15.214844 118.984375 14.804688 117.953125 14.804688 C 116.921875 14.804688 115.933594 15.214844 115.203125 15.945312 C 114.472656 16.671875 114.0625 17.664062 114.0625 18.695312 C 114.0625 19.726562 114.472656 20.71875 115.203125 21.445312 C 115.933594 22.175781 116.921875 22.585938 117.953125 22.585938 Z M 117.953125 22.585938 "/>
<path style="fill-rule:nonzero;fill:rgb(9%,9%,9%);stroke-opacity:1;stroke-miterlimit:4;" d="M 133.394531 18.808594 C 134.109375 18.808594 134.792969 18.527344 135.296875 18.023438 C 135.800781 17.519531 136.085938 16.835938 136.085938 16.121094 C 136.085938 15.410156 135.800781 14.722656 135.296875 14.21875 C 134.792969 13.714844 134.109375 13.433594 133.394531 13.433594 C 132.683594 13.433594 132 13.714844 131.496094 14.21875 C 130.992188 14.722656 130.707031 15.410156 130.707031 16.121094 C 130.707031 16.835938 130.992188 17.519531 131.496094 18.023438 C 132 18.527344 132.683594 18.808594 133.394531 18.808594 Z M 133.394531 18.808594 "/>
<path style="fill-rule:nonzero;fill:rgb(9%,9%,9%);stroke-opacity:1;stroke-miterlimit:4;" d="M 12.742188 84.402344 C 13.636719 84.402344 14.496094 84.046875 15.128906 83.410156 C 15.761719 82.777344 16.117188 81.917969 16.117188 81.023438 C 16.117188 80.128906 15.761719 79.269531 15.128906 78.636719 C 14.496094 78 13.636719 77.644531 12.742188 77.644531 C 11.84375 77.644531 10.984375 78 10.351562 78.636719 C 9.71875 79.269531 9.363281 80.128906 9.363281 81.023438 C 9.363281 81.917969 9.71875 82.777344 10.351562 83.410156 C 10.984375 84.046875 11.84375 84.402344 12.742188 84.402344 Z M 12.742188 84.402344 "/>
<path style="fill-rule:nonzero;fill:rgb(9%,9%,9%);stroke-opacity:1;stroke-miterlimit:4;" d="M 89.378906 18.578125 C 89.859375 18.578125 90.320312 18.386719 90.664062 18.046875 C 91.003906 17.707031 91.195312 17.242188 91.195312 16.761719 C 91.195312 16.277344 91.003906 15.816406 90.664062 15.476562 C 90.320312 15.132812 89.859375 14.941406 89.378906 14.941406 C 88.894531 14.941406 88.433594 15.132812 88.089844 15.476562 C 87.75 15.816406 87.558594 16.277344 87.558594 16.761719 C 87.558594 17.242188 87.75 17.707031 88.089844 18.046875 C 88.433594 18.386719 88.894531 18.578125 89.378906 18.578125 Z M 89.378906 18.578125 "/>
<path style="fill-rule:nonzero;fill:rgb(9%,9%,9%);stroke-opacity:1;stroke-miterlimit:4;" d="M 151.847656 26.902344 C 152.429688 26.902344 152.988281 26.671875 153.398438 26.261719 C 153.8125 25.847656 154.042969 25.289062 154.042969 24.710938 C 154.042969 24.128906 153.8125 23.570312 153.398438 23.15625 C 152.988281 22.746094 152.429688 22.515625 151.847656 22.515625 C 151.265625 22.515625 150.707031 22.746094 150.296875 23.15625 C 149.882812 23.570312 149.652344 24.128906 149.652344 24.710938 C 149.652344 25.289062 149.882812 25.847656 150.296875 26.261719 C 150.707031 26.671875 151.265625 26.902344 151.847656 26.902344 Z M 151.847656 26.902344 "/>
<path style="fill-rule:nonzero;fill:rgb(9%,9%,9%);stroke-opacity:1;stroke-miterlimit:4;" d="M 110.832031 15.925781 C 111.675781 15.925781 112.484375 15.589844 113.078125 14.996094 C 113.671875 14.402344 114.007812 13.59375 114.007812 12.753906 C 114.007812 11.910156 113.671875 11.101562 113.078125 10.507812 C 112.484375 9.914062 111.675781 9.578125 110.832031 9.578125 C 109.992188 9.578125 109.183594 9.914062 108.589844 10.507812 C 107.996094 11.101562 107.660156 11.910156 107.660156 12.753906 C 107.660156 13.59375 107.996094 14.402344 108.589844 14.996094 C 109.183594 15.589844 109.992188 15.925781 110.832031 15.925781 Z M 110.832031 15.925781 "/>
<path style="fill-rule:nonzero;fill:rgb(9%,9%,9%);stroke-opacity:1;stroke-miterlimit:4;" d="M 38.359375 64.117188 C 39.328125 64.117188 40.261719 63.730469 40.945312 63.046875 C 41.632812 62.359375 42.015625 61.429688 42.015625 60.460938 C 42.015625 59.492188 41.632812 58.5625 40.945312 57.875 C 40.261719 57.191406 39.328125 56.804688 38.359375 56.804688 C 37.390625 56.804688 36.460938 57.191406 35.773438 57.875 C 35.089844 58.5625 34.703125 59.492188 34.703125 60.460938 C 34.703125 61.429688 35.089844 62.359375 35.773438 63.046875 C 36.460938 63.730469 37.390625 64.117188 38.359375 64.117188 Z M 38.359375 64.117188 "/>
<path style=" stroke:none;fill-rule:nonzero;fill:rgb(0%,0%,0%);fill-opacity:1;" d="M 139.476562 46.847656 L 135.699219 46.757812 L 131.925781 46.84375 L 128.152344 47.105469 L 124.378906 47.542969 L 120.613281 48.144531 L 116.847656 48.90625 L 113.089844 49.816406 L 109.335938 50.867188 L 105.589844 52.046875 L 101.847656 53.339844 L 98.113281 54.734375 L 94.386719 56.210938 L 90.664062 57.761719 L 86.949219 59.363281 L 83.238281 61.007812 L 79.53125 62.679688 L 72.136719 66.039062 L 68.445312 67.703125 L 64.757812 69.339844 L 61.074219 70.945312 L 57.390625 72.5 L 53.714844 74 L 50.039062 75.441406 L 46.367188 76.816406 L 42.699219 78.121094 L 39.03125 79.351562 L 35.363281 80.507812 L 31.699219 81.585938 L 28.035156 82.589844 L 24.371094 83.515625 L 20.707031 84.367188 L 17.039062 85.144531 L 13.375 85.855469 L 9.707031 86.496094 L 5.683594 87.132812 L 5.507812 88.355469 C 4.832031 93.003906 4.496094 97.695312 4.496094 102.398438 C 4.496094 106.058594 4.699219 109.71875 5.109375 113.355469 L 5.367188 115.628906 L 10.679688 113.269531 L 14.382812 111.601562 L 21.777344 108.238281 L 25.46875 106.574219 L 29.15625 104.941406 L 32.839844 103.355469 L 36.515625 101.824219 L 40.183594 100.367188 L 43.847656 99 L 47.503906 97.738281 L 51.15625 96.589844 L 54.800781 95.566406 L 58.441406 94.683594 L 62.074219 93.949219 L 65.703125 93.371094 L 69.328125 92.953125 L 72.945312 92.699219 L 76.566406 92.617188 L 80.183594 92.703125 L 83.800781 92.957031 L 87.421875 93.378906 L 91.042969 93.960938 L 94.671875 94.699219 L 98.304688 95.582031 L 101.945312 96.601562 L 105.589844 97.75 L 109.242188 99.015625 L 112.898438 100.378906 L 116.5625 101.835938 L 120.234375 103.363281 L 123.910156 104.949219 L 127.589844 106.582031 L 131.277344 108.242188 L 138.664062 111.597656 L 142.363281 113.265625 L 146.070312 114.914062 L 149.777344 116.523438 L 153.488281 118.09375 L 157.203125 119.613281 L 160.921875 121.070312 L 164.640625 122.464844 L 168.363281 123.789062 L 172.085938 125.039062 L 175.8125 126.210938 L 179.539062 127.308594 L 183.265625 128.328125 L 186.996094 129.269531 L 190.722656 130.136719 L 195.964844 131.253906 L 196.398438 129.757812 C 198.867188 121.269531 200.179688 112.484375 200.292969 103.640625 L 200.300781 102.40625 L 200.292969 101.164062 L 200.265625 99.832031 C 199.949219 87.839844 197.4375 76.011719 192.847656 64.933594 L 192.507812 64.125 L 191.902344 62.726562 L 188.09375 61.011719 L 184.390625 59.371094 L 180.679688 57.769531 L 176.960938 56.222656 L 173.242188 54.746094 L 169.511719 53.355469 L 165.777344 52.0625 L 162.039062 50.882812 L 158.289062 49.832031 L 154.539062 48.917969 L 150.777344 48.15625 L 147.015625 47.550781 L 143.246094 47.113281 Z M 135.660156 48.4375 L 139.359375 48.523438 L 143.054688 48.78125 L 146.75 49.207031 L 150.445312 49.800781 L 154.140625 50.550781 L 157.835938 51.445312 L 161.535156 52.484375 L 165.230469 53.648438 L 168.925781 54.925781 L 172.621094 56.304688 L 176.316406 57.769531 L 180.015625 59.308594 L 183.710938 60.90625 L 187.40625 62.542969 L 190.625 63.988281 C 190.855469 64.515625 191.078125 65.042969 191.296875 65.574219 C 195.808594 76.46875 198.277344 88.09375 198.589844 99.867188 L 198.613281 101.175781 L 198.621094 102.398438 L 198.613281 103.621094 C 198.503906 112.324219 197.210938 120.957031 194.789062 129.289062 L 191.101562 128.503906 L 187.40625 127.644531 L 183.710938 126.710938 L 180.015625 125.699219 L 176.316406 124.613281 L 172.621094 123.449219 L 168.925781 122.207031 L 165.230469 120.894531 L 161.535156 119.507812 L 157.835938 118.058594 L 154.140625 116.546875 L 150.445312 114.984375 L 146.75 113.378906 L 143.054688 111.738281 L 139.359375 110.070312 L 131.964844 106.710938 L 128.269531 105.046875 L 124.574219 103.410156 L 120.878906 101.8125 L 117.179688 100.273438 L 113.484375 98.808594 L 109.789062 97.429688 L 106.09375 96.152344 L 102.398438 94.988281 L 98.703125 93.953125 L 95.003906 93.054688 L 91.308594 92.304688 L 87.613281 91.710938 L 83.917969 91.285156 L 80.222656 91.027344 L 76.527344 90.941406 L 72.828125 91.027344 L 69.132812 91.285156 L 65.4375 91.710938 L 61.742188 92.304688 L 58.046875 93.054688 L 54.347656 93.953125 L 50.652344 94.988281 L 46.957031 96.152344 L 43.261719 97.429688 L 39.566406 98.808594 L 35.871094 100.273438 L 32.171875 101.8125 L 28.476562 103.410156 L 24.78125 105.046875 L 21.085938 106.710938 L 13.691406 110.070312 L 9.996094 111.738281 L 6.777344 113.167969 C 6.375 109.597656 6.171875 106.003906 6.171875 102.398438 C 6.171875 97.769531 6.507812 93.15625 7.167969 88.597656 L 9.996094 88.148438 L 13.691406 87.5 L 17.390625 86.785156 L 21.085938 86 L 24.78125 85.140625 L 28.476562 84.207031 L 32.171875 83.195312 L 35.871094 82.109375 L 39.566406 80.945312 L 43.261719 79.703125 L 46.957031 78.390625 L 50.652344 77.003906 L 54.347656 75.554688 L 58.046875 74.042969 L 61.742188 72.480469 L 65.4375 70.875 L 69.132812 69.234375 L 72.828125 67.566406 L 80.222656 64.207031 L 83.917969 62.542969 L 87.613281 60.90625 L 91.308594 59.308594 L 95.003906 57.769531 L 98.703125 56.304688 L 102.398438 54.925781 L 106.09375 53.648438 L 109.789062 52.484375 L 113.484375 51.445312 L 117.179688 50.550781 L 120.878906 49.800781 L 124.574219 49.207031 L 128.269531 48.78125 L 131.964844 48.523438 Z M 135.660156 48.4375 "/>
<path style="fill-rule:nonzero;fill:rgb(15%,15%,15%);stroke-opacity:1;stroke-miterlimit:4;" d="M 135.660156 48.035156 L 139.375 48.121094 L 143.089844 48.382812 L 146.804688 48.8125 L 150.515625 49.40625 L 154.230469 50.160156 L 157.9375 51.058594 L 161.648438 52.101562 L 165.355469 53.265625 L 169.0625 54.550781 L 172.769531 55.933594 L 176.472656 57.402344 L 180.171875 58.941406 L 183.871094 60.539062 L 187.570312 62.175781 L 190.929688 63.691406 C 191.183594 64.265625 191.425781 64.84375 191.667969 65.421875 C 196.261719 76.511719 198.746094 88.359375 199 100.355469 L 199.015625 101.171875 L 199.023438 102.398438 L 199.015625 103.625 C 198.902344 112.488281 197.570312 121.28125 195.066406 129.753906 L 191.011719 128.894531 L 187.308594 128.03125 L 183.605469 127.097656 L 179.902344 126.082031 L 176.199219 124.992188 L 172.496094 123.828125 L 168.792969 122.585938 L 165.089844 121.265625 L 161.386719 119.882812 L 157.6875 118.429688 L 153.984375 116.917969 L 150.285156 115.351562 L 146.585938 113.746094 L 142.890625 112.101562 L 139.191406 110.433594 L 131.800781 107.078125 L 128.109375 105.414062 L 124.414062 103.777344 L 120.722656 102.183594 L 117.035156 100.648438 L 113.34375 99.183594 L 109.652344 97.804688 L 105.96875 96.53125 L 102.285156 95.371094 L 98.601562 94.339844 L 94.917969 93.445312 L 91.238281 92.699219 L 87.558594 92.109375 L 83.878906 91.683594 L 80.203125 91.425781 L 76.527344 91.339844 L 72.847656 91.425781 L 69.171875 91.683594 L 65.492188 92.109375 L 61.8125 92.699219 L 58.132812 93.445312 L 54.449219 94.339844 L 50.765625 95.371094 L 47.082031 96.53125 L 43.398438 97.804688 L 39.710938 99.179688 L 36.023438 100.644531 L 32.332031 102.179688 L 28.640625 103.773438 L 24.945312 105.410156 L 21.25 107.074219 L 13.859375 110.433594 L 10.160156 112.101562 L 6.441406 113.753906 C 5.996094 109.992188 5.773438 106.199219 5.773438 102.398438 C 5.773438 97.652344 6.121094 92.921875 6.8125 88.25 L 9.929688 87.753906 L 13.617188 87.109375 L 17.304688 86.394531 L 20.996094 85.609375 L 24.683594 84.753906 L 28.371094 83.820312 L 32.058594 82.8125 L 35.75 81.726562 L 39.4375 80.5625 L 43.128906 79.324219 L 46.816406 78.015625 L 50.507812 76.632812 L 54.199219 75.183594 L 57.890625 73.675781 L 61.582031 72.113281 L 65.273438 70.507812 L 68.96875 68.867188 L 72.664062 67.203125 L 80.058594 63.84375 L 83.753906 62.175781 L 87.453125 60.539062 L 91.15625 58.941406 L 94.859375 57.398438 L 98.5625 55.929688 L 102.261719 54.550781 L 105.96875 53.265625 L 109.675781 52.101562 L 113.382812 51.058594 L 117.09375 50.160156 L 120.804688 49.40625 L 124.519531 48.8125 L 128.234375 48.382812 L 131.945312 48.121094 Z M 135.660156 48.035156 "/>
<path style=" stroke:none;fill-rule:nonzero;fill:rgb(53%,53%,53%);fill-opacity:1;" d="M 76.527344 92.789062 L 80.222656 92.875 L 83.917969 93.132812 L 87.613281 93.5625 L 91.308594 94.152344 L 95.003906 94.902344 L 98.703125 95.800781 L 102.398438 96.835938 L 106.09375 98 L 109.789062 99.277344 L 113.484375 100.65625 L 117.179688 102.121094 L 120.878906 103.660156 L 124.574219 105.257812 L 128.269531 106.894531 L 131.964844 108.558594 L 135.660156 110.238281 L 139.359375 111.917969 L 143.054688 113.585938 L 146.75 115.226562 L 150.445312 116.835938 L 154.140625 118.398438 L 157.835938 119.90625 L 161.535156 121.355469 L 165.230469 122.742188 L 168.925781 124.054688 L 172.621094 125.296875 L 176.316406 126.460938 L 180.015625 127.546875 L 183.710938 128.558594 L 187.40625 129.492188 L 191.101562 130.351562 L 194.265625 131.023438 C 193.402344 133.796875 192.410156 136.53125 191.296875 139.222656 C 186.460938 150.894531 179.375 161.503906 170.4375 170.4375 C 161.503906 179.375 150.894531 186.460938 139.222656 191.296875 C 127.546875 196.132812 115.035156 198.621094 102.398438 198.621094 C 89.761719 198.621094 77.25 196.132812 65.574219 191.296875 C 53.898438 186.460938 43.292969 179.375 34.355469 170.4375 C 25.421875 161.503906 18.332031 150.894531 13.496094 139.222656 C 10.269531 131.425781 8.085938 123.253906 6.992188 114.921875 L 9.996094 113.585938 L 13.691406 111.917969 L 17.390625 110.238281 L 21.085938 108.558594 L 24.78125 106.894531 L 28.476562 105.257812 L 32.171875 103.660156 L 35.871094 102.121094 L 39.566406 100.65625 L 43.261719 99.277344 L 46.957031 98 L 50.652344 96.835938 L 54.347656 95.800781 L 58.046875 94.902344 L 61.742188 94.152344 L 65.4375 93.5625 L 69.132812 93.132812 L 72.828125 92.875 Z M 76.527344 92.789062 "/>
<path style=" stroke:none;fill-rule:nonzero;fill:rgb(70%,70%,70%);fill-opacity:1;" d="M 83.917969 117.703125 L 83.917969 130.097656 L 106.09375 130.097656 L 106.09375 147.214844 L 128.269531 147.214844 L 128.269531 158.921875 L 150.445312 158.921875 L 150.445312 163.863281 L 172.621094 163.863281 L 172.621094 168.183594 C 171.90625 168.945312 171.179688 169.699219 170.4375 170.4375 C 161.503906 179.375 150.894531 186.460938 139.222656 191.296875 C 127.546875 196.132812 115.035156 198.621094 102.398438 198.621094 C 89.761719 198.621094 77.25 196.132812 65.574219 191.296875 C 53.898438 186.460938 43.292969 179.375 34.355469 170.4375 C 27.578125 163.660156 21.863281 155.921875 17.386719 147.480469 L 17.390625 135.933594 L 39.566406 135.933594 L 39.566406 120.488281 L 61.742188 120.488281 L 61.742188 117.703125 Z M 83.917969 117.703125 "/>
<path style=" stroke:none;fill-rule:nonzero;fill:rgb(0%,0%,0%);fill-opacity:1;" d="M 84.675781 116.945312 L 84.675781 129.339844 L 106.851562 129.339844 L 106.851562 146.457031 L 129.027344 146.457031 L 129.027344 158.164062 L 151.203125 158.164062 L 151.203125 163.105469 L 173.378906 163.105469 L 173.378906 167.363281 C 172.878906 167.910156 172.375 168.449219 171.863281 168.984375 L 171.863281 164.621094 L 151.203125 164.621094 L 151.203125 185.328125 C 150.699219 185.621094 150.195312 185.914062 149.6875 186.199219 L 149.6875 159.679688 L 129.027344 159.679688 L 129.027344 194.863281 C 128.523438 195.007812 128.015625 195.148438 127.511719 195.285156 L 127.511719 147.972656 L 106.851562 147.972656 L 106.851562 198.519531 C 106.34375 198.542969 105.839844 198.5625 105.335938 198.578125 L 105.335938 130.855469 L 84.675781 130.855469 L 84.675781 196.976562 C 84.167969 196.882812 83.664062 196.78125 83.160156 196.679688 L 83.160156 118.460938 L 62.496094 118.460938 L 62.496094 119.730469 L 62.5 119.730469 L 62.496094 189.960938 C 61.992188 189.730469 61.484375 189.492188 60.984375 189.253906 L 60.984375 121.246094 L 40.320312 121.246094 L 40.320312 135.175781 L 40.324219 135.175781 L 40.320312 175.921875 C 39.8125 175.492188 39.308594 175.054688 38.808594 174.617188 L 38.808594 136.691406 L 18.144531 136.691406 L 18.144531 148.878906 C 17.625 147.9375 17.121094 146.984375 16.628906 146.023438 L 16.632812 135.175781 L 38.808594 135.175781 L 38.808594 119.730469 L 60.984375 119.730469 L 60.984375 116.945312 Z M 84.675781 116.945312 "/>
<path style=" stroke:none;fill-rule:nonzero;fill:rgb(70%,70%,70%);fill-opacity:1;" d="M 102.398438 0 C 115.84375 0 129.160156 2.648438 141.582031 7.792969 C 154.007812 12.941406 165.296875 20.484375 174.804688 29.992188 C 184.3125 39.5 191.855469 50.789062 197 63.210938 C 201.980469 75.234375 204.621094 88.09375 204.785156 101.097656 L 204.796875 102.398438 L 204.785156 103.699219 C 204.621094 116.703125 201.980469 129.5625 197 141.582031 C 191.855469 154.007812 184.3125 165.296875 174.804688 174.804688 C 165.296875 184.3125 154.007812 191.855469 141.582031 197 C 129.160156 202.144531 115.84375 204.796875 102.398438 204.796875 C 88.949219 204.796875 75.636719 202.144531 63.210938 197 C 50.789062 191.855469 39.5 184.3125 29.992188 174.804688 C 20.484375 165.296875 12.941406 154.007812 7.792969 141.582031 C 2.648438 129.160156 0 115.84375 0 102.398438 C 0 88.949219 2.648438 75.636719 7.792969 63.210938 C 12.941406 50.789062 20.484375 39.5 29.992188 29.992188 C 39.5 20.484375 50.789062 12.941406 63.210938 7.792969 C 75.636719 2.648438 88.949219 0 102.398438 0 Z M 102.398438 3.363281 C 89.390625 3.363281 76.511719 5.925781 64.5 10.902344 C 52.484375 15.878906 41.566406 23.171875 32.367188 32.367188 C 23.171875 41.566406 15.878906 52.484375 10.902344 64.5 C 5.925781 76.511719 3.363281 89.390625 3.363281 102.398438 C 3.363281 115.402344 5.925781 128.28125 10.902344 140.296875 C 15.878906 152.3125 23.171875 163.230469 32.367188 172.425781 C 41.566406 181.621094 52.484375 188.917969 64.5 193.894531 C 76.511719 198.871094 89.390625 201.433594 102.398438 201.433594 C 115.402344 201.433594 128.28125 198.871094 140.296875 193.894531 C 152.3125 188.917969 163.230469 181.621094 172.425781 172.425781 C 181.621094 163.230469 188.917969 152.3125 193.894531 140.296875 C 198.710938 128.667969 201.265625 116.234375 201.425781 103.65625 L 201.433594 102.398438 L 201.425781 101.140625 C 201.265625 88.5625 198.710938 76.125 193.894531 64.5 C 188.917969 52.484375 181.621094 41.566406 172.425781 32.367188 C 163.230469 23.171875 152.3125 15.878906 140.296875 10.902344 C 128.28125 5.925781 115.402344 3.363281 102.398438 3.363281 Z M 102.398438 3.363281 "/>
</g>
</svg>
